<svg viewBox="0 0 174 50" fill="none" xmlns="http://www.w3.org/2000/svg">
<path d="M172.115 44.2339C172.115 46.8984 169.912 49.0568 167.187 49.0568H5.89657C3.1726 49.0568 0.961548 46.8984 0.961548 44.2339V5.7728C0.961548 3.1095 3.1726 0.943604 5.89657 0.943604H167.185C169.912 0.943604 172.114 3.1095 172.114 5.7728L172.115 44.2339Z" fill="black"/>
<path d="M166.667 1.0016C169.634 1.0016 172.05 3.35629 172.05 6.25003V43.75C172.05 46.6438 169.634 48.9984 166.667 48.9984H6.41025C3.44231 48.9984 1.02724 46.6438 1.02724 43.75V6.25003C1.02724 3.35629 3.44231 1.0016 6.41025 1.0016H166.667ZM166.667 4.04358e-05H6.41025C2.88622 4.04358e-05 0 2.8141 0 6.25003V43.75C0 47.1859 2.88622 50 6.41025 50H166.667C170.191 50 173.077 47.1859 173.077 43.75V6.25003C173.077 2.8141 170.191 4.04358e-05 166.667 4.04358e-05Z" fill="#A6A6A6"/>
<path d="M38.6258 24.73C38.5886 20.7012 42.0091 18.7412 42.1655 18.65C40.2283 15.8962 37.2258 15.52 36.1706 15.49C33.6489 15.2312 31.2027 16.9612 29.9181 16.9612C28.6078 16.9612 26.6296 15.515 24.4976 15.5575C21.754 15.5987 19.1873 17.1475 17.7796 19.5525C14.8745 24.4562 17.0412 31.6625 19.8245 35.6262C21.2168 37.5675 22.8437 39.735 24.9732 39.6587C27.0566 39.575 27.8348 38.3637 30.3489 38.3637C32.8399 38.3637 33.5706 39.6587 35.7424 39.61C37.9783 39.575 39.386 37.66 40.7296 35.7012C42.3386 33.4762 42.9847 31.285 43.0104 31.1725C42.9578 31.155 38.6681 29.5587 38.6258 24.73Z" fill="white"/>
<path d="M34.5232 12.8825C35.6437 11.5162 36.4104 9.65749 36.1976 7.77124C34.5758 7.84124 32.5476 8.86499 31.3796 10.2012C30.3463 11.3787 29.4232 13.3087 29.6617 15.1237C31.4835 15.2562 33.354 14.2275 34.5232 12.8825Z" fill="white"/>
<path d="M68.7754 39.3799H65.8639L64.269 34.4936H58.7254L57.2062 39.3799H54.3716L59.8639 22.7449H63.2562L68.7754 39.3799ZM63.7882 32.4436L62.3459 28.0999C62.1934 27.6561 61.9075 26.6111 61.4857 24.9661H61.4344C61.2664 25.6736 60.9959 26.7186 60.6241 28.0999L59.2075 32.4436H63.7882Z" fill="white"/>
<path d="M82.8999 33.2349C82.8999 35.2749 82.3345 36.8874 81.2038 38.0712C80.1909 39.1249 78.9333 39.6512 77.432 39.6512C75.8115 39.6512 74.6474 39.0837 73.9384 37.9487H73.8871V44.2674H71.1538V31.3337C71.1538 30.0512 71.1192 28.7349 71.0525 27.3849H73.4563L73.6089 29.2862H73.6602C74.5717 27.8537 75.955 27.1387 77.8115 27.1387C79.2627 27.1387 80.4743 27.6974 81.4435 28.8162C82.4153 29.9362 82.8999 31.4087 82.8999 33.2349ZM80.1153 33.3324C80.1153 32.1649 79.8461 31.2024 79.305 30.4449C78.714 29.6549 77.9204 29.2599 76.9256 29.2599C76.2512 29.2599 75.6384 29.4799 75.0909 29.9137C74.5422 30.3512 74.1833 30.9224 74.0153 31.6299C73.9307 31.9599 73.8884 32.2299 73.8884 32.4424V34.4424C73.8884 35.3149 74.1627 36.0512 74.7115 36.6524C75.2602 37.2537 75.973 37.5537 76.8499 37.5537C77.8794 37.5537 78.6807 37.1662 79.2538 36.3937C79.8281 35.6199 80.1153 34.5999 80.1153 33.3324Z" fill="white"/>
<path d="M97.0498 33.2349C97.0498 35.2749 96.4844 36.8874 95.3523 38.0712C94.3408 39.1249 93.0831 39.6512 91.5818 39.6512C89.9613 39.6512 88.7972 39.0837 88.0895 37.9487H88.0382V44.2674H85.3049V31.3337C85.3049 30.0512 85.2703 28.7349 85.2036 27.3849H87.6075L87.76 29.2862H87.8113C88.7216 27.8537 90.1049 27.1387 91.9626 27.1387C93.4126 27.1387 94.6241 27.6974 95.5959 28.8162C96.5639 29.9362 97.0498 31.4087 97.0498 33.2349ZM94.2651 33.3324C94.2651 32.1649 93.9946 31.2024 93.4536 30.4449C92.8626 29.6549 92.0716 29.2599 91.0754 29.2599C90.3998 29.2599 89.7882 29.4799 89.2395 29.9137C88.6908 30.3512 88.3331 30.9224 88.1651 31.6299C88.0818 31.9599 88.0382 32.2299 88.0382 32.4424V34.4424C88.0382 35.3149 88.3126 36.0512 88.8587 36.6524C89.4075 37.2524 90.1203 37.5537 90.9998 37.5537C92.0293 37.5537 92.8305 37.1662 93.4036 36.3937C93.978 35.6199 94.2651 34.5999 94.2651 33.3324Z" fill="white"/>
<path d="M112.87 34.715C112.87 36.13 112.366 37.2812 111.355 38.17C110.243 39.1412 108.696 39.6262 106.707 39.6262C104.872 39.6262 103.4 39.2812 102.286 38.59L102.919 36.3687C104.119 37.0762 105.436 37.4312 106.87 37.4312C107.9 37.4312 108.701 37.2037 109.277 36.7512C109.85 36.2987 110.136 35.6912 110.136 34.9337C110.136 34.2587 109.9 33.69 109.427 33.2287C108.956 32.7675 108.17 32.3387 107.073 31.9425C104.086 30.8562 102.593 29.265 102.593 27.1725C102.593 25.805 103.116 24.6837 104.164 23.8112C105.207 22.9375 106.6 22.5012 108.341 22.5012C109.893 22.5012 111.183 22.765 112.213 23.2912L111.529 25.4637C110.568 24.9537 109.481 24.6987 108.264 24.6987C107.302 24.6987 106.551 24.93 106.013 25.39C105.557 25.8012 105.329 26.3025 105.329 26.8962C105.329 27.5537 105.589 28.0975 106.113 28.525C106.568 28.92 107.395 29.3475 108.595 29.8087C110.063 30.385 111.141 31.0587 111.834 31.8312C112.525 32.6012 112.87 33.565 112.87 34.715Z" fill="white"/>
<path d="M121.908 29.385H118.895V35.2087C118.895 36.69 119.426 37.43 120.49 37.43C120.978 37.43 121.383 37.3887 121.704 37.3062L121.779 39.33C121.241 39.5262 120.532 39.625 119.654 39.625C118.574 39.625 117.731 39.3037 117.122 38.6625C116.515 38.02 116.21 36.9425 116.21 35.4287V29.3825H114.415V27.3825H116.21V25.1862L118.895 24.3962V27.3825H121.908V29.385Z" fill="white"/>
<path d="M135.501 33.2836C135.501 35.1274 134.96 36.6411 133.881 37.8249C132.748 39.0436 131.246 39.6511 129.373 39.6511C127.568 39.6511 126.131 39.0674 125.059 37.8999C123.987 36.7324 123.451 35.2586 123.451 33.4824C123.451 31.6236 124.002 30.1011 125.109 28.9174C126.213 27.7324 127.702 27.1399 129.575 27.1399C131.381 27.1399 132.833 27.7236 133.929 28.8924C134.978 30.0261 135.501 31.4899 135.501 33.2836ZM132.665 33.3699C132.665 32.2636 132.423 31.3149 131.932 30.5236C131.359 29.5661 130.539 29.0886 129.478 29.0886C128.379 29.0886 127.545 29.5674 126.972 30.5236C126.481 31.3161 126.238 32.2799 126.238 33.4199C126.238 34.5261 126.481 35.4749 126.972 36.2649C127.563 37.2224 128.388 37.6999 129.454 37.6999C130.497 37.6999 131.316 37.2124 131.907 36.2399C132.411 35.4336 132.665 34.4749 132.665 33.3699Z" fill="white"/>
<path d="M144.386 29.7287C144.115 29.6799 143.827 29.6549 143.524 29.6549C142.563 29.6549 141.819 30.0087 141.296 30.7174C140.841 31.3424 140.613 32.1324 140.613 33.0862V39.3799H137.881L137.906 31.1624C137.906 29.7799 137.872 28.5212 137.804 27.3862H140.184L140.284 29.6812H140.36C140.649 28.8924 141.104 28.2574 141.727 27.7812C142.336 27.3524 142.993 27.1387 143.702 27.1387C143.955 27.1387 144.183 27.1562 144.386 27.1874V29.7287Z" fill="white"/>
<path d="M156.61 32.815C156.61 33.2925 156.578 33.695 156.51 34.0237H148.31C148.342 35.2087 148.738 36.115 149.5 36.74C150.191 37.2987 151.084 37.5787 152.182 37.5787C153.396 37.5787 154.504 37.39 155.5 37.0112L155.928 38.8612C154.764 39.3562 153.39 39.6024 151.804 39.6024C149.896 39.6024 148.399 39.0549 147.309 37.9612C146.222 36.8675 145.677 35.3987 145.677 33.5562C145.677 31.7475 146.183 30.2412 147.197 29.04C148.259 27.7575 149.693 27.1162 151.499 27.1162C153.272 27.1162 154.614 27.7575 155.525 29.04C156.247 30.0587 156.61 31.3187 156.61 32.815ZM154.004 32.1237C154.022 31.3337 153.843 30.6512 153.473 30.075C153 29.3337 152.273 28.9637 151.295 28.9637C150.401 28.9637 149.674 29.325 149.119 30.05C148.664 30.6262 148.393 31.3175 148.31 32.1225H154.004V32.1237Z" fill="white"/>
<path d="M62.8845 12.5111C62.8845 13.9824 62.4319 15.0899 61.5281 15.8336C60.6909 16.5199 59.5012 16.8636 57.9601 16.8636C57.196 16.8636 56.5422 16.8311 55.9948 16.7661V8.72737C56.7089 8.61487 57.4781 8.55737 58.3089 8.55737C59.7768 8.55737 60.8832 8.86862 61.6294 9.49112C62.4653 10.1949 62.8845 11.2011 62.8845 12.5111ZM61.4678 12.5474C61.4678 11.5936 61.2089 10.8624 60.6909 10.3524C60.173 9.84362 59.4165 9.58862 58.4204 9.58862C57.9973 9.58862 57.6371 9.61612 57.3383 9.67362V15.7849C57.5037 15.8099 57.8063 15.8211 58.246 15.8211C59.2742 15.8211 60.0678 15.5424 60.6268 14.9849C61.1858 14.4274 61.4678 13.6149 61.4678 12.5474Z" fill="white"/>
<path d="M70.396 13.7963C70.396 14.7026 70.1307 15.4451 69.5999 16.0276C69.0435 16.6263 68.3063 16.9251 67.3858 16.9251C66.4986 16.9251 65.7922 16.6388 65.2653 16.0638C64.7396 15.4901 64.4768 14.7663 64.4768 13.8938C64.4768 12.9813 64.7473 12.2326 65.2909 11.6513C65.8345 11.0701 66.5653 10.7788 67.4858 10.7788C68.373 10.7788 69.0858 11.0651 69.6255 11.6388C70.1383 12.1963 70.396 12.9163 70.396 13.7963ZM69.0024 13.8388C69.0024 13.2951 68.8819 12.8288 68.6422 12.4401C68.3601 11.9701 67.9589 11.7351 67.4371 11.7351C66.8973 11.7351 66.4871 11.9701 66.205 12.4401C65.964 12.8288 65.8448 13.3026 65.8448 13.8626C65.8448 14.4063 65.9653 14.8726 66.205 15.2613C66.496 15.7313 66.9012 15.9663 67.4242 15.9663C67.9371 15.9663 68.3396 15.7276 68.6294 15.2488C68.8781 14.8526 69.0024 14.3826 69.0024 13.8388Z" fill="white"/>
<path d="M80.4678 10.8987L78.5768 16.7912H77.346L76.5627 14.2324C76.364 13.5937 76.2024 12.9587 76.0768 12.3287H76.0524C75.9358 12.9762 75.7742 13.6099 75.5665 14.2324L74.7345 16.7912H73.4896L71.7114 10.8987H73.0922L73.7755 13.6999C73.9409 14.3624 74.0768 14.9937 74.1858 15.5912H74.2101C74.3101 15.0987 74.4755 14.4712 74.7089 13.7124L75.5665 10.8999H76.6614L77.4832 13.6524C77.6819 14.3237 77.8435 14.9699 77.9678 15.5924H78.005C78.096 14.9862 78.2332 14.3399 78.4153 13.6524L79.1486 10.8999H80.4678V10.8987Z" fill="white"/>
<path d="M87.4332 16.7912H86.0896V13.4162C86.0896 12.3762 85.6844 11.8562 84.8716 11.8562C84.4729 11.8562 84.1511 11.9987 83.9011 12.2849C83.6537 12.5712 83.528 12.9087 83.528 13.2949V16.7899H82.1845V12.5824C82.1845 12.0649 82.1678 11.5037 82.1357 10.8962H83.3165L83.3793 11.8174H83.4165C83.5729 11.5312 83.8062 11.2949 84.1127 11.1062C84.4768 10.8862 84.8844 10.7749 85.3306 10.7749C85.8947 10.7749 86.3639 10.9524 86.737 11.3087C87.2011 11.7449 87.4332 12.3962 87.4332 13.2612V16.7912Z" fill="white"/>
<path d="M91.1384 16.7913H89.7961V8.19507H91.1384V16.7913Z" fill="white"/>
<path d="M99.0485 13.7963C99.0485 14.7026 98.7831 15.4451 98.2523 16.0276C97.6959 16.6263 96.9575 16.9251 96.0383 16.9251C95.1498 16.9251 94.4434 16.6388 93.9177 16.0638C93.3921 15.4901 93.1293 14.7663 93.1293 13.8938C93.1293 12.9813 93.3998 12.2326 93.9434 11.6513C94.487 11.0701 95.2177 10.7788 96.137 10.7788C97.0254 10.7788 97.737 11.0651 98.278 11.6388C98.7908 12.1963 99.0485 12.9163 99.0485 13.7963ZM97.6536 13.8388C97.6536 13.2951 97.5331 12.8288 97.2934 12.4401C97.0126 11.9701 96.61 11.7351 96.0895 11.7351C95.5485 11.7351 95.1382 11.9701 94.8575 12.4401C94.6165 12.8288 94.4972 13.3026 94.4972 13.8626C94.4972 14.4063 94.6177 14.8726 94.8575 15.2613C95.1485 15.7313 95.5536 15.9663 96.0767 15.9663C96.5895 15.9663 96.9908 15.7276 97.2806 15.2488C97.5305 14.8526 97.6536 14.3826 97.6536 13.8388Z" fill="white"/>
<path d="M105.551 16.7913H104.345L104.245 16.1126H104.208C103.795 16.6538 103.206 16.9251 102.442 16.9251C101.872 16.9251 101.41 16.7463 101.063 16.3913C100.747 16.0688 100.59 15.6676 100.59 15.1913C100.59 14.4713 100.897 13.9226 101.517 13.5426C102.134 13.1626 103.004 12.9763 104.123 12.9851V12.8751C104.123 12.0988 103.705 11.7113 102.868 11.7113C102.272 11.7113 101.746 11.8576 101.292 12.1476L101.019 11.2876C101.581 10.9488 102.274 10.7788 103.092 10.7788C104.672 10.7788 105.464 11.5913 105.464 13.2163V15.3863C105.464 15.9751 105.493 16.4438 105.551 16.7913ZM104.156 14.7663V13.8576C102.674 13.8326 101.933 14.2288 101.933 15.0451C101.933 15.3526 102.018 15.5826 102.191 15.7363C102.364 15.8901 102.584 15.9663 102.847 15.9663C103.142 15.9663 103.418 15.8751 103.669 15.6938C103.922 15.5113 104.077 15.2801 104.134 14.9963C104.149 14.9326 104.156 14.8551 104.156 14.7663Z" fill="white"/>
<path d="M113.186 16.7913H111.993L111.931 15.8451H111.893C111.513 16.5651 110.864 16.9251 109.952 16.9251C109.224 16.9251 108.618 16.6463 108.137 16.0888C107.656 15.5313 107.417 14.8076 107.417 13.9188C107.417 12.9651 107.677 12.1926 108.2 11.6026C108.706 11.0526 109.327 10.7776 110.065 10.7776C110.877 10.7776 111.445 11.0438 111.768 11.5776H111.793V8.19507H113.138V15.2038C113.138 15.7776 113.154 16.3063 113.186 16.7913ZM111.793 14.3063V13.3238C111.793 13.1538 111.781 13.0163 111.756 12.9113C111.681 12.5963 111.518 12.3313 111.27 12.1176C111.02 11.9038 110.719 11.7963 110.372 11.7963C109.87 11.7963 109.478 11.9901 109.19 12.3788C108.904 12.7676 108.759 13.2638 108.759 13.8701C108.759 14.4526 108.896 14.9251 109.172 15.2888C109.463 15.6763 109.855 15.8701 110.346 15.8701C110.787 15.8701 111.14 15.7088 111.408 15.3851C111.666 15.0863 111.793 14.7263 111.793 14.3063Z" fill="white"/>
<path d="M124.677 13.7963C124.677 14.7026 124.411 15.4451 123.881 16.0276C123.324 16.6263 122.588 16.9251 121.667 16.9251C120.781 16.9251 120.074 16.6388 119.546 16.0638C119.02 15.4901 118.758 14.7663 118.758 13.8938C118.758 12.9813 119.028 12.2326 119.572 11.6513C120.115 11.0701 120.846 10.7788 121.768 10.7788C122.654 10.7788 123.368 11.0651 123.906 11.6388C124.419 12.1963 124.677 12.9163 124.677 13.7963ZM123.284 13.8388C123.284 13.2951 123.164 12.8288 122.924 12.4401C122.641 11.9701 122.241 11.7351 121.718 11.7351C121.179 11.7351 120.769 11.9701 120.486 12.4401C120.245 12.8288 120.126 13.3026 120.126 13.8626C120.126 14.4063 120.246 14.8726 120.486 15.2613C120.777 15.7313 121.182 15.9663 121.705 15.9663C122.218 15.9663 122.622 15.7276 122.911 15.2488C123.159 14.8526 123.284 14.3826 123.284 13.8388Z" fill="white"/>
<path d="M131.901 16.7912H130.559V13.4162C130.559 12.3762 130.154 11.8562 129.34 11.8562C128.941 11.8562 128.619 11.9987 128.37 12.2849C128.122 12.5712 127.997 12.9087 127.997 13.2949V16.7899H126.652V12.5824C126.652 12.0649 126.637 11.5037 126.605 10.8962H127.784L127.847 11.8174H127.884C128.042 11.5312 128.275 11.2949 128.581 11.1062C128.946 10.8862 129.352 10.7749 129.8 10.7749C130.363 10.7749 130.832 10.9524 131.205 11.3087C131.67 11.7449 131.901 12.3962 131.901 13.2612V16.7912Z" fill="white"/>
<path d="M140.943 11.8799H139.464V14.7424C139.464 15.4699 139.727 15.8336 140.247 15.8336C140.488 15.8336 140.688 15.8136 140.846 15.7724L140.881 16.7661C140.615 16.8636 140.267 16.9124 139.837 16.9124C139.306 16.9124 138.893 16.7549 138.595 16.4399C138.295 16.1249 138.146 15.5949 138.146 14.8511V11.8799H137.263V10.8987H138.146V9.81865L139.463 9.43115V10.8974H140.942V11.8799H140.943Z" fill="white"/>
<path d="M148.056 16.7913H146.711V13.4413C146.711 12.3851 146.306 11.8563 145.495 11.8563C144.872 11.8563 144.446 12.1626 144.213 12.7751C144.173 12.9038 144.15 13.0613 144.15 13.2463V16.7901H142.807V8.19507H144.15V11.7463H144.175C144.599 11.1001 145.205 10.7776 145.991 10.7776C146.547 10.7776 147.008 10.9551 147.373 11.3113C147.828 11.7551 148.056 12.4151 148.056 13.2876V16.7913Z" fill="white"/>
<path d="M155.393 13.5661C155.393 13.8011 155.376 13.9986 155.343 14.1598H151.314C151.332 14.7423 151.524 15.1861 151.897 15.4936C152.238 15.7686 152.678 15.9061 153.217 15.9061C153.813 15.9061 154.356 15.8136 154.846 15.6273L155.056 16.5373C154.483 16.7798 153.809 16.9011 153.028 16.9011C152.092 16.9011 151.355 16.6323 150.822 16.0948C150.286 15.5573 150.02 14.8361 150.02 13.9311C150.02 13.0423 150.268 12.3023 150.767 11.7123C151.287 11.0823 151.991 10.7673 152.879 10.7673C153.749 10.7673 154.409 11.0823 154.855 11.7123C155.215 12.2123 155.393 12.8311 155.393 13.5661ZM154.111 13.2273C154.122 12.8386 154.033 12.5036 153.851 12.2211C153.618 11.8573 153.263 11.6748 152.782 11.6748C152.343 11.6748 151.986 11.8523 151.713 12.2086C151.49 12.4923 151.358 12.8311 151.314 13.2273H154.111Z" fill="white"/>
</svg>
