<svg width="174" height="50" viewBox="0 0 174 50" fill="none" xmlns="http://www.w3.org/2000/svg">
<path d="M166.745 50H6.70906C3.18987 50 0.307617 47.1859 0.307617 43.75V6.25004C0.307617 2.8141 3.18987 4.516e-05 6.70906 4.516e-05H166.745C170.264 4.516e-05 173.147 2.8141 173.147 6.25004V43.75C173.147 47.1859 170.264 50 166.745 50Z" fill="black"/>
<path d="M166.745 1.00161C169.709 1.00161 172.121 3.35629 172.121 6.25004V43.75C172.121 46.6438 169.709 48.9984 166.745 48.9984H6.70906C3.74519 48.9984 1.33345 46.6438 1.33345 43.75V6.25004C1.33345 3.35629 3.74519 1.00161 6.70906 1.00161H166.745ZM166.745 4.516e-05H6.70906C3.18987 4.516e-05 0.307617 2.8141 0.307617 6.25004V43.75C0.307617 47.1859 3.18987 50 6.70906 50H166.745C170.264 50 173.147 47.1859 173.147 43.75V6.25004C173.147 2.8141 170.264 4.516e-05 166.745 4.516e-05Z" fill="#A6A6A6"/>
<path d="M61.0156 12.8047C61.0156 13.8485 60.6955 14.6844 60.0649 15.3079C59.34 16.0469 58.3958 16.4188 57.2387 16.4188C56.1329 16.4188 55.1886 16.0407 54.4141 15.2954C53.6379 14.5391 53.2506 13.611 53.2506 12.5C53.2506 11.3891 53.6379 10.461 54.4141 9.71099C55.1886 8.95942 56.1329 8.5813 57.2387 8.5813C57.7892 8.5813 58.3141 8.69224 58.8151 8.89849C59.3144 9.1063 59.7209 9.38755 60.0153 9.73442L59.3464 10.3938C58.8327 9.80161 58.1333 9.50942 57.2387 9.50942C56.4321 9.50942 55.7328 9.78442 55.139 10.3391C54.5517 10.8954 54.2572 11.6157 54.2572 12.5C54.2572 13.3844 54.5517 14.111 55.139 14.6672C55.7328 15.2157 56.4321 15.4969 57.2387 15.4969C58.0949 15.4969 58.8151 15.2157 59.3832 14.661C59.7577 14.2938 59.9705 13.7875 60.0265 13.1407H57.2387V12.2375H60.9579C61.0028 12.4329 61.0156 12.6219 61.0156 12.8047Z" fill="white" stroke="white" stroke-width="0.16" stroke-miterlimit="10"/>
<path d="M66.9161 9.67349H63.4225V12.0485H66.572V12.9516H63.4225V15.3266H66.9161V16.2469H62.4335V8.75317H66.9161V9.67349Z" fill="white" stroke="white" stroke-width="0.16" stroke-miterlimit="10"/>
<path d="M71.0803 16.2469H70.0912V9.67349H67.9484V8.75317H73.2247V9.67349H71.0803V16.2469Z" fill="white" stroke="white" stroke-width="0.16" stroke-miterlimit="10"/>
<path d="M77.0433 16.2469V8.75317H78.0308V16.2469H77.0433Z" fill="white" stroke="white" stroke-width="0.16" stroke-miterlimit="10"/>
<path d="M82.4078 16.2469H81.4268V9.67349H79.2759V8.75317H84.5587V9.67349H82.4078V16.2469Z" fill="white" stroke="white" stroke-width="0.16" stroke-miterlimit="10"/>
<path d="M94.5482 15.2829C93.7912 16.0407 92.8534 16.4188 91.7347 16.4188C90.6097 16.4188 89.6719 16.0407 88.9149 15.2829C88.1595 14.5266 87.7834 13.5985 87.7834 12.5C87.7834 11.4016 88.1595 10.4735 88.9149 9.71724C89.6719 8.95942 90.6097 8.5813 91.7347 8.5813C92.847 8.5813 93.7848 8.95942 94.5418 9.72349C95.3035 10.486 95.6796 11.4079 95.6796 12.5C95.6796 13.5985 95.3035 14.5266 94.5482 15.2829ZM89.6463 14.6547C90.216 15.2157 90.9089 15.4969 91.7347 15.4969C92.5541 15.4969 93.2535 15.2157 93.8168 14.6547C94.3849 14.0938 94.673 13.3735 94.673 12.5C94.673 11.6266 94.3849 10.9063 93.8168 10.3454C93.2535 9.78442 92.5541 9.50317 91.7347 9.50317C90.9089 9.50317 90.216 9.78442 89.6463 10.3454C89.0781 10.9063 88.7901 11.6266 88.7901 12.5C88.7901 13.3735 89.0781 14.0938 89.6463 14.6547Z" fill="white" stroke="white" stroke-width="0.16" stroke-miterlimit="10"/>
<path d="M97.067 16.2469V8.75317H98.2673L101.999 14.5813H102.043L101.999 13.1407V8.75317H102.987V16.2469H101.956L98.048 10.1313H98.0048L98.048 11.5782V16.2469H97.067Z" fill="white" stroke="white" stroke-width="0.16" stroke-miterlimit="10"/>
<path d="M87.5401 27.1907C84.533 27.1907 82.0765 29.4251 82.0765 32.5079C82.0765 35.5657 84.533 37.8235 87.5401 37.8235C90.5536 37.8235 93.0101 35.5657 93.0101 32.5079C93.0101 29.4251 90.5536 27.1907 87.5401 27.1907ZM87.5401 35.7297C85.8901 35.7297 84.4706 34.4001 84.4706 32.5079C84.4706 30.5907 85.8901 29.2844 87.5401 29.2844C89.1901 29.2844 90.616 30.5907 90.616 32.5079C90.616 34.4001 89.1901 35.7297 87.5401 35.7297ZM75.619 27.1907C72.6055 27.1907 70.1554 29.4251 70.1554 32.5079C70.1554 35.5657 72.6055 37.8235 75.619 37.8235C78.6309 37.8235 81.0826 35.5657 81.0826 32.5079C81.0826 29.4251 78.6309 27.1907 75.619 27.1907ZM75.619 35.7297C73.9674 35.7297 72.5431 34.4001 72.5431 32.5079C72.5431 30.5907 73.9674 29.2844 75.619 29.2844C77.269 29.2844 78.6885 30.5907 78.6885 32.5079C78.6885 34.4001 77.269 35.7297 75.619 35.7297ZM61.4334 28.8204V31.0797H66.9595C66.7978 32.3422 66.3657 33.2704 65.7032 33.9172C64.8966 34.6985 63.6403 35.5657 61.4334 35.5657C58.0327 35.5657 55.3697 32.886 55.3697 29.5657C55.3697 26.2454 58.0327 23.5657 61.4334 23.5657C63.2722 23.5657 64.6101 24.2673 65.5976 25.1766L67.2283 23.5844C65.8472 22.2969 64.01 21.3079 61.4334 21.3079C56.77 21.3079 52.8507 25.0126 52.8507 29.5657C52.8507 34.1188 56.77 37.8235 61.4334 37.8235C63.954 37.8235 65.8472 37.0172 67.3356 35.5047C68.8607 34.0157 69.336 31.9219 69.336 30.2313C69.336 29.7063 69.2912 29.2235 69.2112 28.8204H61.4334ZM119.44 30.5719C118.99 29.3829 117.603 27.1907 114.777 27.1907C111.976 27.1907 109.644 29.3454 109.644 32.5079C109.644 35.486 111.952 37.8235 115.045 37.8235C117.547 37.8235 118.99 36.3344 119.584 35.4672L117.728 34.2594C117.108 35.1438 116.265 35.7297 115.045 35.7297C113.834 35.7297 112.965 35.1876 112.408 34.1188L119.691 31.1766L119.44 30.5719ZM112.014 32.3422C111.952 30.2922 113.645 29.2423 114.858 29.2423C115.809 29.2423 116.615 29.7063 116.884 30.3704L112.014 32.3422ZM106.095 37.5001H108.489V21.8751H106.095V37.5001ZM102.174 28.3751H102.094C101.556 27.7532 100.53 27.1907 99.2307 27.1907C96.5037 27.1907 94.0104 29.5282 94.0104 32.5251C94.0104 35.5047 96.5037 37.8235 99.2307 37.8235C100.53 37.8235 101.556 37.2563 102.094 36.6157H102.174V37.3782C102.174 39.411 101.062 40.5032 99.2675 40.5032C97.8048 40.5032 96.8974 39.4719 96.5229 38.6047L94.4409 39.4532C95.041 40.8626 96.6301 42.5969 99.2675 42.5969C102.075 42.5969 104.443 40.9844 104.443 37.061V27.5141H102.174V28.3751ZM99.4356 35.7297C97.7856 35.7297 96.4045 34.3813 96.4045 32.5251C96.4045 30.6516 97.7856 29.2844 99.4356 29.2844C101.062 29.2844 102.343 30.6516 102.343 32.5251C102.343 34.3813 101.062 35.7297 99.4356 35.7297ZM130.649 21.8751H124.923V37.5001H127.311V31.5797H130.649C133.301 31.5797 135.901 29.7063 135.901 26.7266C135.901 23.7485 133.294 21.8751 130.649 21.8751ZM130.711 29.4063H127.311V24.0485H130.711C132.494 24.0485 133.512 25.4938 133.512 26.7266C133.512 27.936 132.494 29.4063 130.711 29.4063ZM145.472 27.161C143.746 27.161 141.952 27.9048 141.215 29.5532L143.333 30.4204C143.79 29.5532 144.628 29.2719 145.515 29.2719C146.753 29.2719 148.01 29.9985 148.029 31.2813V31.4454C147.597 31.2016 146.672 30.8407 145.534 30.8407C143.252 30.8407 140.926 32.0672 140.926 34.3563C140.926 36.4501 142.796 37.7985 144.897 37.7985C146.504 37.7985 147.39 37.0907 147.947 36.2672H148.029V37.4751H150.335V31.4813C150.335 28.711 148.216 27.161 145.472 27.161ZM145.183 35.7235C144.402 35.7235 143.314 35.3454 143.314 34.4001C143.314 33.1907 144.671 32.7266 145.846 32.7266C146.897 32.7266 147.39 32.9532 148.029 33.2516C147.842 34.6985 146.566 35.7235 145.183 35.7235ZM158.737 27.5032L155.992 34.2766H155.911L153.073 27.5032H150.498L154.762 36.9688L152.329 42.236H154.824L161.393 27.5032H158.737ZM137.214 37.5001H139.608V21.8751H137.214V37.5001Z" fill="white"/>
<path d="M13.6672 9.42351C13.2911 9.80788 13.0735 10.4063 13.0735 11.1813V38.825C13.0735 39.6 13.2911 40.1985 13.6672 40.5829L13.76 40.6672L29.626 25.1829V24.8172L13.76 9.33288L13.6672 9.42351Z" fill="url(#paint0_linear_246_2266)"/>
<path d="M34.909 30.3469L29.6262 25.1829V24.8172L34.9154 19.6532L35.0338 19.7204L41.2976 23.2001C43.0852 24.1876 43.0852 25.8126 41.2976 26.8063L35.0338 30.2797L34.909 30.3469Z" fill="url(#paint1_linear_246_2266)"/>
<path d="M35.034 30.2796L29.6264 24.9999L13.6676 40.5827C14.2613 41.1921 15.2296 41.2655 16.3306 40.6562L35.034 30.2796Z" fill="url(#paint2_linear_246_2266)"/>
<path d="M35.034 19.7203L16.3306 9.34376C15.2296 8.74064 14.2613 8.81407 13.6676 9.42345L29.6264 25L35.034 19.7203Z" fill="url(#paint3_linear_246_2266)"/>
<defs>
<linearGradient id="paint0_linear_246_2266" x1="28.2173" y1="39.1129" x2="7.24533" y2="17.6328" gradientUnits="userSpaceOnUse">
<stop stop-color="#00A0FF"/>
<stop offset="0.0066" stop-color="#00A1FF"/>
<stop offset="0.2601" stop-color="#00BEFF"/>
<stop offset="0.5122" stop-color="#00D2FF"/>
<stop offset="0.7604" stop-color="#00DFFF"/>
<stop offset="1" stop-color="#00E3FF"/>
</linearGradient>
<linearGradient id="paint1_linear_246_2266" x1="43.6254" y1="24.9983" x2="12.6464" y2="24.9983" gradientUnits="userSpaceOnUse">
<stop stop-color="#FFE000"/>
<stop offset="0.4087" stop-color="#FFBD00"/>
<stop offset="0.7754" stop-color="#FFA500"/>
<stop offset="1" stop-color="#FF9C00"/>
</linearGradient>
<linearGradient id="paint2_linear_246_2266" x1="32.0935" y1="22.1298" x2="3.65381" y2="-6.99903" gradientUnits="userSpaceOnUse">
<stop stop-color="#FF3A44"/>
<stop offset="1" stop-color="#C31162"/>
</linearGradient>
<linearGradient id="paint3_linear_246_2266" x1="9.65044" y1="49.7797" x2="22.35" y2="36.7725" gradientUnits="userSpaceOnUse">
<stop stop-color="#32A071"/>
<stop offset="0.0685" stop-color="#2DA771"/>
<stop offset="0.4762" stop-color="#15CF74"/>
<stop offset="0.8009" stop-color="#06E775"/>
<stop offset="1" stop-color="#00F076"/>
</linearGradient>
</defs>
</svg>
