<?xml version="1.0" encoding="utf-8"?>
<svg width="220" height="77" viewBox="0 0 162 37" fill="none" xmlns="http://www.w3.org/2000/svg" xmlns:bx="https://boxy-svg.com">
  <path d="M 1.781 22.238 C 3.165 16.642 7.366 12.148 12.786 10.349 C 15.129 17.569 21.917 22.804 29.908 22.804 C 31.39 22.804 32.827 22.617 34.204 22.275 C 32.313 29.46 25.778 34.761 18 34.761 C 10.207 34.761 3.658 29.442 1.781 22.238 Z M 1.239 18 C 1.239 10.826 5.747 4.709 12.084 2.316 C 11.97 3.13 11.908 3.959 11.908 4.804 C 11.908 6.306 12.095 7.764 12.443 9.158 C 7.366 10.829 3.281 14.704 1.321 19.646 C 1.268 19.105 1.239 18.556 1.239 18 Z M 18 1.239 C 27.257 1.239 34.761 8.744 34.761 18 C 34.761 18.484 34.736 18.963 34.695 19.438 C 32.002 12.886 25.56 8.261 18.05 8.261 C 16.526 8.261 15.047 8.454 13.633 8.813 C 13.316 7.526 13.145 6.185 13.145 4.804 C 13.145 3.807 13.235 2.832 13.404 1.883 C 14.865 1.466 16.405 1.239 18 1.239 Z M 29.908 21.566 C 22.479 21.566 16.167 16.708 13.974 10.002 C 15.279 9.675 16.644 9.498 18.05 9.498 C 25.477 9.498 31.783 14.357 33.978 21.059 C 32.674 21.388 31.312 21.566 29.908 21.566 Z M 36 18 C 36 14.293 34.878 10.848 32.957 7.985 C 29.727 3.17 24.234 0 18 0 C 11.766 0 6.273 3.17 3.043 7.985 C 1.122 10.848 0 14.293 0 18 C 0 27.941 8.059 36 18 36 C 27.941 36 36 27.941 36 18 Z" fill="#303936" bx:origin="2.249972 0.5"/>
  <path d="M 154.846 26.765 L 152.904 26.765 L 152.904 18.591 L 145.752 7.792 L 148.181 7.792 L 153.875 16.742 L 159.569 7.792 L 161.998 7.792 L 154.846 18.591 L 154.846 26.765 Z" fill="#182020" bx:origin="-3.985781 0.538028"/>
  <path d="M 51.943 26.765 L 49.999 26.765 L 49.999 7.792 L 61.523 7.792 L 61.523 9.56 L 51.943 9.56 L 51.943 16.019 L 60.849 16.019 L 60.849 17.788 L 51.943 17.788 L 51.943 26.765 Z" fill="#182020" bx:origin="2.690038 0.538028"/>
  <path d="M 69.998 20.009 L 78.282 20.009 L 74.154 10.042 L 69.998 20.009 Z M 67.165 26.76 L 64.899 26.76 L 73.209 7.791 L 75.098 7.791 L 83.408 26.76 L 81.142 26.76 L 79.037 21.778 L 69.269 21.778 L 67.165 26.76 Z" fill="#182020" bx:origin="0.869847 0.538166"/>
  <path d="M 94.605 23.87 L 94.66 23.87 L 100.921 7.792 L 103.026 7.792 L 95.577 26.765 L 93.634 26.765 L 86.374 7.792 L 88.534 7.792 L 94.605 23.87 Z" fill="#182020" bx:origin="-0.322785 0.538028"/>
  <path d="M 124.062 17.281 C 124.062 16.193 123.882 15.154 123.522 14.164 C 123.163 13.174 122.647 12.305 121.973 11.556 C 121.3 10.807 120.479 10.21 119.509 9.763 C 118.539 9.319 117.444 9.096 116.223 9.096 C 115.001 9.096 113.906 9.319 112.936 9.763 C 111.966 10.21 111.145 10.807 110.471 11.556 C 109.798 12.305 109.282 13.174 108.923 14.164 C 108.563 15.154 108.383 16.193 108.383 17.281 C 108.383 18.369 108.563 19.406 108.923 20.397 C 109.282 21.386 109.798 22.255 110.471 23.005 C 111.145 23.754 111.966 24.352 112.936 24.797 C 113.906 25.243 115.001 25.466 116.223 25.466 C 117.444 25.466 118.539 25.243 119.509 24.797 C 120.479 24.352 121.3 23.754 121.973 23.005 C 122.647 22.255 123.163 21.386 123.522 20.397 C 123.882 19.406 124.062 18.369 124.062 17.281 Z M 126.163 17.281 C 126.163 18.725 125.911 20.054 125.408 21.266 C 124.906 22.479 124.21 23.527 123.321 24.409 C 122.432 25.292 121.381 25.983 120.169 26.484 C 118.956 26.983 117.641 27.232 116.223 27.232 C 114.803 27.232 113.488 26.983 112.277 26.484 C 111.064 25.983 110.014 25.292 109.124 24.409 C 108.235 23.527 107.539 22.479 107.037 21.266 C 106.534 20.054 106.283 18.725 106.283 17.281 C 106.283 15.836 106.534 14.508 107.037 13.295 C 107.539 12.082 108.235 11.035 109.124 10.152 C 110.014 9.269 111.064 8.579 112.277 8.079 C 113.488 7.58 114.803 7.33 116.223 7.33 C 117.641 7.33 118.956 7.58 120.169 8.079 C 121.381 8.579 122.432 9.269 123.321 10.152 C 124.21 11.035 124.906 12.082 125.408 13.295 C 125.911 14.508 126.163 15.836 126.163 17.281 Z" fill="#182020" bx:origin="-1.271831 0.536127"/>
  <path d="M 131.726 16.179 L 135.18 16.179 C 136.044 16.179 136.777 16.09 137.38 15.911 C 137.983 15.733 138.464 15.496 138.824 15.201 C 139.184 14.906 139.445 14.558 139.606 14.155 C 139.768 13.754 139.849 13.321 139.849 12.856 C 139.849 12.41 139.768 11.986 139.606 11.585 C 139.445 11.181 139.184 10.829 138.824 10.524 C 138.464 10.222 137.983 9.984 137.38 9.816 C 136.777 9.646 136.044 9.56 135.18 9.56 L 131.726 9.56 L 131.726 16.179 Z M 131.726 26.765 L 129.783 26.765 L 129.783 7.791 L 135.666 7.791 C 137.61 7.791 139.143 8.212 140.268 9.051 C 141.392 9.891 141.955 11.159 141.955 12.856 C 141.955 14.179 141.536 15.291 140.699 16.193 C 139.863 17.095 138.653 17.618 137.07 17.76 L 142.574 26.765 L 140.2 26.765 L 134.965 17.948 L 131.726 17.948 L 131.726 26.765 Z" fill="#182020" bx:origin="-3.813933 0.538052"/>
  <path d="M 64.246 34.183 C 64.28 34.333 64.342 34.452 64.434 34.539 C 64.525 34.626 64.651 34.669 64.813 34.669 C 64.945 34.669 65.052 34.643 65.135 34.591 C 65.218 34.54 65.282 34.473 65.327 34.391 C 65.372 34.31 65.404 34.216 65.421 34.111 C 65.438 34.005 65.446 33.898 65.446 33.788 L 65.446 31.363 L 65.809 31.363 L 65.809 33.938 C 65.809 34.058 65.793 34.18 65.761 34.306 C 65.729 34.431 65.674 34.545 65.595 34.646 C 65.516 34.747 65.413 34.832 65.285 34.899 C 65.157 34.966 64.997 34.999 64.806 34.999 C 64.56 34.999 64.356 34.937 64.191 34.812 C 64.026 34.687 63.924 34.5 63.883 34.258 L 64.246 34.183 Z" fill="#182020" bx:origin="8.886814 -3.676479"/>
  <path d="M 68.642 34.58 L 70.553 34.58 L 70.553 34.91 L 68.279 34.91 L 68.279 31.365 L 70.493 31.365 L 70.493 31.696 L 68.642 31.696 L 68.642 32.902 L 70.372 32.902 L 70.372 33.233 L 68.642 33.233 L 68.642 34.58 Z" fill="#182020" bx:origin="5.593659 -3.770099"/>
  <path d="M 73.67 34.399 L 73.68 34.399 L 74.577 31.365 L 75.011 31.365 L 75.908 34.399 L 75.918 34.399 L 76.766 31.365 L 77.169 31.365 L 76.115 34.91 L 75.691 34.91 L 74.794 31.876 L 74.784 31.876 L 73.886 34.91 L 73.463 34.91 L 72.409 31.365 L 72.812 31.365 L 73.67 34.399 Z" fill="#182020" bx:origin="1.80462 -3.770099"/>
  <path d="M 79.639 34.58 L 81.55 34.58 L 81.55 34.91 L 79.276 34.91 L 79.276 31.365 L 81.489 31.365 L 81.489 31.696 L 79.639 31.696 L 79.639 32.902 L 81.368 32.902 L 81.368 33.233 L 79.639 33.233 L 79.639 34.58 Z" fill="#182020" bx:origin="0.757691 -3.770099"/>
  <path d="M 84.195 34.58 L 85.859 34.58 L 85.859 34.91 L 83.832 34.91 L 83.832 31.365 L 84.195 31.365 L 84.195 34.58 Z" fill="#182020" bx:origin="-1.397636 -3.770099"/>
  <path d="M 88.325 32.933 L 88.97 32.933 C 89.132 32.933 89.268 32.915 89.382 32.882 C 89.494 32.848 89.584 32.803 89.651 32.749 C 89.718 32.694 89.767 32.628 89.797 32.554 C 89.827 32.479 89.843 32.398 89.843 32.311 C 89.843 32.227 89.827 32.148 89.797 32.074 C 89.767 31.998 89.718 31.932 89.651 31.875 C 89.584 31.819 89.494 31.776 89.382 31.743 C 89.268 31.711 89.132 31.695 88.97 31.695 L 88.325 31.695 L 88.325 32.933 Z M 88.325 34.91 L 87.962 34.91 L 87.962 31.365 L 89.061 31.365 C 89.424 31.365 89.711 31.443 89.921 31.601 C 90.131 31.757 90.236 31.994 90.236 32.311 C 90.236 32.558 90.158 32.766 90.002 32.934 C 89.845 33.103 89.619 33.199 89.324 33.227 L 90.352 34.91 L 89.908 34.91 L 88.93 33.262 L 88.325 33.262 L 88.325 34.91 Z" fill="#182020" bx:origin="-2.913392 -3.770099"/>
  <path d="M 93.739 34.91 L 93.376 34.91 L 93.376 33.382 L 92.04 31.365 L 92.493 31.365 L 93.557 33.038 L 94.621 31.365 L 95.075 31.365 L 93.739 33.382 L 93.739 34.91 Z" fill="#182020" bx:origin="-3.637899 -3.770099"/>
  <path d="M 99.032 34.399 L 99.042 34.399 L 99.939 31.365 L 100.373 31.365 L 101.27 34.399 L 101.28 34.399 L 102.128 31.365 L 102.531 31.365 L 101.477 34.91 L 101.054 34.91 L 100.156 31.876 L 100.146 31.876 L 99.249 34.91 L 98.825 34.91 L 97.771 31.365 L 98.175 31.365 L 99.032 34.399 Z" fill="#182020" bx:origin="-3.523536 -3.770099"/>
  <path d="M 104.994 34.91 L 104.631 34.91 L 104.631 31.365 L 104.994 31.365 L 104.994 34.91 Z" fill="#182020" bx:origin="-65.100759 -3.770099"/>
  <path d="M 108.682 34.91 L 108.319 34.91 L 108.319 31.696 L 107.123 31.696 L 107.123 31.365 L 109.876 31.365 L 109.876 31.696 L 108.682 31.696 L 108.682 34.91 Z" fill="#182020" bx:origin="-9.489293 -3.770099"/>
  <path d="M 111.952 31.363 L 112.316 31.363 L 112.316 32.902 L 114.261 32.902 L 114.261 31.363 L 114.625 31.363 L 114.625 34.909 L 114.261 34.909 L 114.261 33.232 L 112.316 33.232 L 112.316 34.909 L 111.952 34.909 L 111.952 31.363 Z" fill="#182020" bx:origin="-11.579892 -3.769817"/>
  <path d="M 118.754 32.933 L 119.339 32.933 C 119.5 32.933 119.637 32.915 119.75 32.882 C 119.863 32.848 119.953 32.803 120.02 32.749 C 120.087 32.694 120.136 32.628 120.166 32.554 C 120.196 32.479 120.211 32.398 120.211 32.311 C 120.211 32.227 120.196 32.148 120.166 32.074 C 120.136 31.998 120.087 31.932 120.02 31.875 C 119.953 31.819 119.863 31.776 119.75 31.743 C 119.637 31.711 119.5 31.695 119.339 31.695 L 118.754 31.695 L 118.754 32.933 Z M 118.391 31.365 L 119.43 31.365 C 119.793 31.365 120.08 31.443 120.289 31.601 C 120.499 31.757 120.604 31.994 120.604 32.311 C 120.604 32.628 120.499 32.866 120.289 33.024 C 120.08 33.183 119.793 33.262 119.43 33.262 L 118.754 33.262 L 118.754 34.91 L 118.391 34.91 L 118.391 31.365 Z" fill="#182020" bx:origin="-16.896543 -3.770099"/>
  <path d="M 123.098 33.648 L 124.646 33.648 L 123.874 31.786 L 123.098 33.648 Z M 122.568 34.909 L 122.145 34.909 L 123.698 31.365 L 124.051 31.365 L 125.604 34.909 L 125.18 34.909 L 124.787 33.978 L 122.962 33.978 L 122.568 34.909 Z" fill="#182020" bx:origin="-11.895348 -3.771162"/>
  <path d="M 129.38 31.951 C 129.222 31.721 128.991 31.606 128.689 31.606 C 128.595 31.606 128.503 31.618 128.412 31.643 C 128.321 31.669 128.24 31.707 128.167 31.759 C 128.095 31.812 128.037 31.877 127.993 31.959 C 127.95 32.041 127.928 32.137 127.928 32.247 C 127.928 32.407 127.973 32.532 128.064 32.62 C 128.155 32.708 128.268 32.781 128.402 32.838 C 128.536 32.895 128.683 32.945 128.843 32.991 C 129.003 33.036 129.15 33.096 129.284 33.171 C 129.419 33.247 129.532 33.345 129.622 33.469 C 129.713 33.592 129.758 33.761 129.758 33.975 C 129.758 34.134 129.724 34.279 129.655 34.409 C 129.586 34.536 129.495 34.643 129.383 34.73 C 129.27 34.817 129.144 34.884 129.004 34.931 C 128.865 34.978 128.725 35.001 128.583 35.001 C 128.365 35.001 128.157 34.96 127.961 34.878 C 127.764 34.796 127.597 34.662 127.459 34.476 L 127.791 34.24 C 127.869 34.37 127.976 34.474 128.113 34.553 C 128.251 34.631 128.413 34.67 128.601 34.67 C 128.691 34.67 128.782 34.656 128.872 34.628 C 128.963 34.6 129.044 34.558 129.116 34.502 C 129.189 34.447 129.248 34.38 129.295 34.301 C 129.342 34.22 129.365 34.128 129.365 34.024 C 129.365 33.9 129.339 33.798 129.287 33.717 C 129.235 33.635 129.166 33.567 129.08 33.511 C 128.994 33.456 128.897 33.41 128.788 33.374 C 128.678 33.337 128.566 33.3 128.45 33.263 C 128.333 33.226 128.221 33.185 128.112 33.139 C 128.003 33.091 127.906 33.032 127.819 32.96 C 127.734 32.889 127.665 32.798 127.613 32.69 C 127.561 32.582 127.535 32.446 127.535 32.282 C 127.535 32.112 127.567 31.963 127.633 31.836 C 127.698 31.709 127.786 31.604 127.895 31.521 C 128.004 31.437 128.128 31.376 128.266 31.336 C 128.403 31.296 128.545 31.277 128.689 31.277 C 128.891 31.277 129.074 31.308 129.239 31.371 C 129.403 31.434 129.556 31.546 129.698 31.706 L 129.38 31.951 Z" fill="#182020" bx:origin="-20.208825 -3.564029"/>
  <path d="M 133.785 31.951 C 133.627 31.721 133.397 31.606 133.094 31.606 C 133 31.606 132.908 31.618 132.817 31.643 C 132.726 31.669 132.645 31.707 132.573 31.759 C 132.5 31.812 132.442 31.877 132.398 31.959 C 132.355 32.041 132.333 32.137 132.333 32.247 C 132.333 32.407 132.378 32.532 132.469 32.62 C 132.56 32.708 132.673 32.781 132.807 32.838 C 132.941 32.895 133.089 32.945 133.248 32.991 C 133.408 33.036 133.555 33.096 133.69 33.171 C 133.824 33.247 133.936 33.345 134.027 33.469 C 134.118 33.592 134.163 33.761 134.163 33.975 C 134.163 34.134 134.129 34.279 134.06 34.409 C 133.991 34.536 133.9 34.643 133.788 34.73 C 133.675 34.817 133.549 34.884 133.409 34.931 C 133.27 34.978 133.13 35.001 132.988 35.001 C 132.77 35.001 132.562 34.96 132.366 34.878 C 132.169 34.796 132.002 34.662 131.864 34.476 L 132.196 34.24 C 132.274 34.37 132.381 34.474 132.518 34.553 C 132.656 34.631 132.818 34.67 133.006 34.67 C 133.096 34.67 133.187 34.656 133.277 34.628 C 133.368 34.6 133.449 34.558 133.521 34.502 C 133.594 34.447 133.653 34.38 133.7 34.301 C 133.747 34.22 133.77 34.128 133.77 34.024 C 133.77 33.9 133.744 33.798 133.692 33.717 C 133.64 33.635 133.571 33.567 133.485 33.511 C 133.399 33.456 133.302 33.41 133.193 33.374 C 133.083 33.337 132.971 33.3 132.855 33.263 C 132.738 33.226 132.626 33.185 132.517 33.139 C 132.408 33.091 132.311 33.032 132.224 32.96 C 132.139 32.889 132.07 32.798 132.018 32.69 C 131.966 32.582 131.939 32.446 131.939 32.282 C 131.939 32.112 131.973 31.963 132.038 31.836 C 132.103 31.709 132.191 31.604 132.3 31.521 C 132.409 31.437 132.533 31.376 132.671 31.336 C 132.808 31.296 132.95 31.277 133.094 31.277 C 133.296 31.277 133.479 31.308 133.644 31.371 C 133.809 31.434 133.962 31.546 134.103 31.706 L 133.785 31.951 Z" fill="#182020" bx:origin="-22.124878 -3.564029"/>
  <path d="M 136.865 34.91 L 136.502 34.91 L 136.502 31.365 L 136.865 31.365 L 136.865 34.91 Z" fill="#182020" bx:origin="-152.898069 -3.770099"/>
  <path d="M 142.53 33.137 C 142.53 32.934 142.497 32.739 142.43 32.554 C 142.363 32.368 142.265 32.206 142.14 32.066 C 142.013 31.925 141.86 31.813 141.678 31.73 C 141.498 31.646 141.292 31.606 141.063 31.606 C 140.835 31.606 140.63 31.646 140.448 31.73 C 140.267 31.813 140.113 31.925 139.986 32.066 C 139.861 32.206 139.764 32.368 139.697 32.554 C 139.63 32.739 139.596 32.934 139.596 33.137 C 139.596 33.341 139.63 33.535 139.697 33.72 C 139.764 33.906 139.861 34.068 139.986 34.209 C 140.113 34.349 140.267 34.461 140.448 34.544 C 140.63 34.627 140.835 34.669 141.063 34.669 C 141.292 34.669 141.498 34.627 141.678 34.544 C 141.86 34.461 142.013 34.349 142.14 34.209 C 142.265 34.068 142.363 33.906 142.43 33.72 C 142.497 33.535 142.53 33.341 142.53 33.137 Z M 142.924 33.137 C 142.924 33.407 142.877 33.656 142.782 33.883 C 142.689 34.111 142.558 34.306 142.392 34.471 C 142.226 34.636 142.029 34.766 141.802 34.859 C 141.575 34.954 141.329 34.999 141.063 34.999 C 140.798 34.999 140.551 34.954 140.324 34.859 C 140.098 34.766 139.901 34.636 139.735 34.471 C 139.568 34.306 139.438 34.111 139.344 33.883 C 139.25 33.656 139.203 33.407 139.203 33.137 C 139.203 32.867 139.25 32.618 139.344 32.391 C 139.438 32.164 139.568 31.968 139.735 31.803 C 139.901 31.638 140.098 31.507 140.324 31.416 C 140.551 31.321 140.798 31.274 141.063 31.274 C 141.329 31.274 141.575 31.321 141.802 31.416 C 142.029 31.507 142.226 31.638 142.392 31.803 C 142.558 31.968 142.689 32.164 142.782 32.391 C 142.877 32.618 142.924 32.867 142.924 33.137 Z" fill="#182020" bx:origin="-15.642064 -3.56349"/>
  <path d="M 147.748 34.369 L 147.758 34.369 L 147.758 31.365 L 148.114 31.365 L 148.114 34.909 L 147.669 34.909 L 145.586 31.875 L 145.576 31.875 L 145.576 34.909 L 145.22 34.909 L 145.22 31.365 L 145.664 31.365 L 147.748 34.369 Z" fill="#182020" bx:origin="-22.19111 -3.771162"/>
</svg>