<?xml version="1.0" encoding="utf-8"?>
<svg width="130" height="77.75" viewBox="0 0 112 67" fill="none" xmlns="http://www.w3.org/2000/svg">
  <g clip-path="url(#clip0_246_2190)">
    <path d="M41.7536 19.3948C42.969 14.515 46.6587 10.5952 51.4186 9.02635C53.4767 15.3232 59.438 19.8892 66.4559 19.8892C67.7576 19.8892 69.0195 19.7254 70.2292 19.4277C68.5683 25.6936 62.8294 30.3163 55.9981 30.3163C49.1542 30.3163 43.4025 25.6779 41.7536 19.3948ZM41.2778 15.699C41.2778 9.44309 45.2371 4.10738 50.8023 2.02129C50.702 2.73094 50.6478 3.4544 50.6478 4.1912C50.6478 5.50048 50.8123 6.77166 51.1179 7.98807C46.6587 9.44544 43.0711 12.8247 41.3497 17.135C41.3032 16.6624 41.2778 16.1838 41.2778 15.699ZM55.9981 1.08208C64.1278 1.08208 70.7184 7.62657 70.7184 15.699C70.7184 16.1214 70.6964 16.5387 70.6609 16.9521C68.2958 11.2396 62.6376 7.20555 56.0422 7.20555C54.7036 7.20555 53.4047 7.37415 52.163 7.68706C51.8848 6.56591 51.7342 5.3957 51.7342 4.1912C51.7342 3.32152 51.8133 2.47042 51.9616 1.64313C53.2445 1.28021 54.5975 1.08208 55.9981 1.08208ZM66.4559 18.81C59.9315 18.81 54.3884 14.5726 52.4622 8.72439C53.6086 8.43862 54.8072 8.28431 56.0422 8.28431C62.5647 8.28431 68.1035 12.5213 70.0306 18.367C68.8853 18.6538 67.6895 18.81 66.4559 18.81ZM71.8067 15.699C71.8067 12.466 70.8211 9.4621 69.1342 6.96503C66.2972 2.7657 61.4731 0.00140381 55.9981 0.00140381C50.5231 0.00140381 45.699 2.7657 42.862 6.96503C41.1747 9.4621 40.1895 12.466 40.1895 15.699C40.1895 24.3686 47.2674 31.397 55.9981 31.397C64.7287 31.397 71.8067 24.3686 71.8067 15.699Z" fill="#182020"/>
    <path d="M104.846 58.7649H102.904V50.591L95.7518 39.792H98.1806L103.875 48.7421L109.569 39.792H111.998L104.846 50.591V58.7649Z" fill="#182020"/>
    <path d="M1.94272 58.7649H-0.000732422V39.792H11.5233V41.5599H1.94272V48.0187H10.8485V49.7876H1.94272V58.7649Z" fill="#182020"/>
    <path d="M19.998 52.0089H28.2817L24.1535 42.041L19.998 52.0089ZM17.1648 58.7606H14.8986L23.2086 39.7906H25.0979L33.4084 58.7606H31.1416L29.037 53.7768H19.2694L17.1648 58.7606Z" fill="#182020"/>
    <path d="M44.6053 55.8708H44.6595L50.9205 39.7917H53.0256L45.577 58.7651H43.6339L36.3743 39.7917H38.5336L44.6053 55.8708Z" fill="#182020"/>
    <path d="M74.0615 49.2808C74.0615 48.193 73.8817 47.1538 73.5225 46.1641C73.1632 45.1744 72.6471 44.3052 71.9732 43.556C71.3003 42.8073 70.4787 42.21 69.5089 41.7643C68.5386 41.3189 67.4436 41.0955 66.2225 41.0955C65.0009 41.0955 63.9058 41.3189 62.936 41.7643C61.9662 42.21 61.1447 42.8073 60.4712 43.556C59.7979 44.3052 59.2818 45.1744 58.9225 46.1641C58.5632 47.1538 58.3834 48.193 58.3834 49.2808C58.3834 50.3686 58.5632 51.4074 58.9225 52.3971C59.2818 53.3868 59.7979 54.256 60.4712 55.0052C61.1447 55.7539 61.9662 56.3521 62.936 56.7969C63.9058 57.2432 65.0009 57.4656 66.2225 57.4656C67.4436 57.4656 68.5386 57.2432 69.5089 56.7969C70.4787 56.3521 71.3003 55.7539 71.9732 55.0052C72.6471 54.256 73.1632 53.3868 73.5225 52.3971C73.8817 51.4074 74.0615 50.3686 74.0615 49.2808ZM76.1628 49.2808C76.1628 50.7253 75.9105 52.0536 75.4083 53.2663C74.9057 54.4793 74.2097 55.5267 73.3205 56.4092C72.4323 57.2922 71.3809 57.9833 70.1689 58.4825C68.9564 58.9815 67.6407 59.2316 66.2225 59.2316C64.8033 59.2316 63.4881 58.9815 62.2766 58.4825C61.0635 57.9833 60.0136 57.2922 59.1244 56.4092C58.2352 55.5267 57.5393 54.4793 57.0366 53.2663C56.534 52.0536 56.2826 50.7253 56.2826 49.2808C56.2826 47.8363 56.534 46.5084 57.0366 45.2949C57.5393 44.0823 58.2352 43.0349 59.1244 42.152C60.0136 41.2694 61.0635 40.5788 62.2766 40.0787C63.4881 39.5801 64.8033 39.3295 66.2225 39.3295C67.6407 39.3295 68.9564 39.5801 70.1689 40.0787C71.3809 40.5788 72.4323 41.2694 73.3205 42.152C74.2097 43.0349 74.9057 44.0823 75.4083 45.2949C75.9105 46.5084 76.1628 47.8363 76.1628 49.2808Z" fill="#182020"/>
    <path d="M81.7264 48.1792H85.1801C86.0444 48.1792 86.7773 48.0901 87.3797 47.9115C87.9826 47.733 88.4637 47.4962 88.8239 47.2014C89.1836 46.9062 89.445 46.558 89.6062 46.156C89.7682 45.7545 89.8493 45.3211 89.8493 44.8562C89.8493 44.4099 89.7682 43.9851 89.6062 43.5837C89.445 43.1812 89.1836 42.8287 88.8239 42.5249C88.4637 42.2215 87.9826 41.9853 87.3797 41.8148C86.7773 41.6452 86.0444 41.5599 85.1801 41.5599H81.7264V48.1792ZM81.7264 58.7649H79.7833V39.7916H85.6659C87.61 39.7916 89.1428 40.2116 90.2675 41.0508C91.3919 41.8909 91.9547 43.1593 91.9547 44.8562C91.9547 46.1788 91.5356 47.2909 90.6992 48.1925C89.8628 49.0951 88.6526 49.618 87.0698 49.7604L92.5743 58.7649H90.2004L84.9648 49.9481H81.7264V58.7649Z" fill="#182020"/>
    <g style="" transform="matrix(1.314081, 0, 0, 1.321805, -17.700426, -21.561104)">
      <path d="M 14.246 66.183 C 14.28 66.333 14.342 66.452 14.434 66.539 C 14.525 66.626 14.651 66.669 14.813 66.669 C 14.945 66.669 15.052 66.643 15.135 66.591 C 15.218 66.54 15.282 66.473 15.327 66.391 C 15.372 66.31 15.404 66.216 15.421 66.11 C 15.438 66.005 15.446 65.898 15.446 65.788 L 15.446 63.364 L 15.809 63.364 L 15.809 65.938 C 15.809 66.058 15.793 66.18 15.761 66.306 C 15.729 66.431 15.674 66.545 15.595 66.646 C 15.516 66.748 15.413 66.832 15.285 66.899 C 15.157 66.966 14.997 66.999 14.806 66.999 C 14.56 66.999 14.356 66.937 14.191 66.812 C 14.026 66.686 13.924 66.501 13.883 66.258 L 14.246 66.183 Z" fill="#182020"/>
      <path d="M18.6423 66.5796H20.5531V66.9102H18.2792V63.3652H20.4927V63.6958H18.6423V64.9022H20.3719V65.2327H18.6423V66.5796Z" fill="#182020"/>
      <path d="M23.6695 66.3993H23.6796L24.577 63.365H25.0105L25.908 66.3993H25.918L26.7655 63.365H27.1689L26.1146 66.9099H25.6912L24.7938 63.8756H24.7837L23.8863 66.9099H23.4628L22.4091 63.365H22.812L23.6695 66.3993Z" fill="#182020"/>
      <path d="M29.6389 66.5796H31.5497V66.9102H29.2758V63.3652H31.4893V63.6958H29.6389V64.9022H31.3679V65.2327H29.6389V66.5796Z" fill="#182020"/>
      <path d="M34.1949 66.5796H35.8587V66.9102H33.8319V63.3652H34.1949V66.5796Z" fill="#182020"/>
      <path d="M38.3249 64.9317H38.97C39.1317 64.9317 39.2683 64.9155 39.3815 64.8822C39.4938 64.8484 39.5839 64.804 39.6511 64.7493C39.7182 64.694 39.7672 64.6288 39.7973 64.5541C39.827 64.4788 39.8429 64.3978 39.8429 64.3107C39.8429 64.2277 39.827 64.1483 39.7973 64.0735C39.7672 63.9982 39.7182 63.932 39.6511 63.8754C39.5839 63.8187 39.4938 63.7749 39.3815 63.7429C39.2683 63.711 39.1317 63.6953 38.97 63.6953H38.3249V64.9317ZM38.3249 66.9097H37.9618V63.3648H39.0611C39.4242 63.3648 39.7105 63.4434 39.9211 63.6C40.1307 63.7572 40.2358 63.9939 40.2358 64.3107C40.2358 64.5583 40.158 64.766 40.0016 64.9341C39.8448 65.1032 39.6189 65.2003 39.3235 65.227L40.3518 66.9097H39.9082L38.9297 65.2623H38.3249V66.9097Z" fill="#182020"/>
      <path d="M43.7387 66.9099H43.3756V65.3825L42.0398 63.3651H42.493L43.5573 65.0377L44.6211 63.3651H45.0749L43.7387 65.3825V66.9099Z" fill="#182020"/>
      <path d="M49.0318 66.3993H49.0419L49.9393 63.365H50.3729L51.2703 66.3993H51.2803L52.1279 63.365H52.5312L51.4775 66.9099H51.054L50.1561 63.8756H50.146L49.2486 66.9099H48.8252L47.7714 63.365H48.1747L49.0318 66.3993Z" fill="#182020"/>
      <path d="M54.994 66.9099H54.6309V63.365H54.994V66.9099Z" fill="#182020"/>
      <path d="M58.6815 66.9099H58.3185V63.6955H57.1233V63.3651H59.8763V63.6955H58.6815V66.9099Z" fill="#182020"/>
      <path d="M61.952 63.3642H62.3157V64.9011H64.2615V63.3642H64.6246V66.909H64.2615V65.2316H62.3157V66.909H61.952V63.3642Z" fill="#182020"/>
      <path d="M68.754 64.9317H69.3391C69.5002 64.9317 69.6374 64.9155 69.7497 64.8822C69.8629 64.8484 69.9525 64.804 70.0202 64.7493C70.0869 64.694 70.1357 64.6288 70.166 64.5541C70.1961 64.4788 70.211 64.3978 70.211 64.3107C70.211 64.2277 70.1961 64.1483 70.166 64.0735C70.1357 63.9982 70.0869 63.932 70.0202 63.8754C69.9525 63.8187 69.8629 63.7749 69.7497 63.7429C69.6374 63.711 69.5002 63.6953 69.3391 63.6953H68.754V64.9317ZM68.3909 63.3648H69.4298C69.7929 63.3648 70.0796 63.4434 70.2893 63.6C70.4993 63.7572 70.6043 63.9939 70.6043 64.3107C70.6043 64.6283 70.4993 64.8664 70.2893 65.0246C70.0796 65.1832 69.7929 65.2623 69.4298 65.2623H68.754V66.9097H68.3909V63.3648Z" fill="#182020"/>
      <path d="M73.0979 65.6477H74.6461L73.8739 63.7849L73.0979 65.6477ZM72.5683 66.9093H72.1448L73.6979 63.3649H74.0509L75.6039 66.9093H75.1804L74.7866 65.9781H72.9616L72.5683 66.9093Z" fill="#182020"/>
      <path d="M83.785 63.9515C83.6272 63.7214 83.3965 63.6062 83.0943 63.6062C83.0003 63.6062 82.9078 63.6181 82.8167 63.6434C82.726 63.6686 82.645 63.7072 82.5725 63.7591C82.5001 63.811 82.442 63.8772 82.3984 63.9586C82.3552 64.0406 82.3332 64.1368 82.3332 64.2468C82.3332 64.4068 82.3782 64.5316 82.4694 64.6198C82.5601 64.7083 82.6728 64.7808 82.807 64.8379C82.9413 64.8946 83.0885 64.945 83.2483 64.9907C83.4076 65.0355 83.5552 65.0956 83.6896 65.1708C83.8239 65.246 83.9361 65.3451 84.0272 65.469C84.1179 65.5923 84.1629 65.7604 84.1629 65.9747C84.1629 66.1342 84.1289 66.2786 84.0599 66.4077C83.9912 66.5362 83.9001 66.6434 83.7879 66.7301C83.6752 66.8173 83.549 66.8839 83.4095 66.9306C83.2699 66.9778 83.1298 67.0006 82.9884 67.0006C82.7701 67.0006 82.5624 66.9597 82.3658 66.8782C82.1692 66.7963 82.0018 66.662 81.8641 66.4749L82.1964 66.2395C82.2742 66.37 82.3811 66.4743 82.5183 66.5525C82.656 66.631 82.818 66.6701 83.0061 66.6701C83.0962 66.6701 83.1869 66.6558 83.2771 66.6277C83.3677 66.5996 83.4493 66.5577 83.5212 66.5025C83.5936 66.4472 83.6526 66.3801 83.6997 66.2996C83.7466 66.2195 83.7701 66.1276 83.7701 66.0242C83.7701 65.9005 83.7437 65.7981 83.692 65.7166C83.6397 65.6346 83.5711 65.5666 83.4852 65.5109C83.3993 65.4561 83.3015 65.4104 83.1931 65.3737C83.0833 65.337 82.971 65.3004 82.855 65.2632C82.7385 65.2265 82.6262 65.1846 82.5169 65.1384C82.408 65.0918 82.3106 65.0322 82.2242 64.9603C82.1389 64.8889 82.0699 64.7988 82.0176 64.6898C81.9657 64.5817 81.9394 64.4458 81.9394 64.2821C81.9394 64.1116 81.9725 63.9634 82.0377 63.8362C82.1034 63.7091 82.1912 63.6043 82.3 63.521C82.4094 63.4371 82.5332 63.3757 82.6708 63.3362C82.8085 63.2957 82.95 63.2757 83.0943 63.2757C83.2957 63.2757 83.479 63.3071 83.644 63.3709C83.8085 63.4342 83.9615 63.5462 84.103 63.7062L83.785 63.9515Z" fill="#182020"/>
      <path d="M86.865 66.9099H86.502V63.365H86.865V66.9099Z" fill="#182020"/>
      <path d="M79.38 63.9515C79.2222 63.7214 78.9914 63.6062 78.6893 63.6062C78.5952 63.6062 78.5027 63.6181 78.4115 63.6434C78.3209 63.6686 78.2398 63.7072 78.1675 63.7591C78.095 63.811 78.037 63.8772 77.9933 63.9586C77.9502 64.0406 77.9281 64.1368 77.9281 64.2468C77.9281 64.4068 77.9732 64.5316 78.0643 64.6198C78.1549 64.7083 78.2676 64.7808 78.402 64.8379C78.5363 64.8946 78.6835 64.945 78.8433 64.9907C79.003 65.0355 79.1502 65.0956 79.2845 65.1708C79.4188 65.246 79.5315 65.3451 79.6221 65.469C79.7128 65.5923 79.7583 65.7604 79.7583 65.9747C79.7583 66.1342 79.7238 66.2786 79.6547 66.4077C79.5862 66.5362 79.495 66.6434 79.3829 66.7301C79.2701 66.8173 79.144 66.8839 79.0044 66.9306C78.8649 66.9778 78.7248 67.0006 78.5832 67.0006C78.365 67.0006 78.1574 66.9597 77.9607 66.8782C77.7641 66.7963 77.5966 66.662 77.459 66.4749L77.7914 66.2395C77.8691 66.37 77.9761 66.4743 78.1132 66.5525C78.2509 66.631 78.413 66.6701 78.601 66.6701C78.6912 66.6701 78.7818 66.6558 78.872 66.6277C78.9631 66.5996 79.0442 66.5577 79.1161 66.5025C79.1886 66.4472 79.2475 66.3801 79.2945 66.2996C79.3416 66.2195 79.3651 66.1276 79.3651 66.0242C79.3651 65.9005 79.3391 65.7981 79.2869 65.7166C79.2346 65.6346 79.166 65.5666 79.0802 65.5109C78.9943 65.4561 78.8969 65.4104 78.7881 65.3737C78.6782 65.337 78.566 65.3004 78.4499 65.2632C78.3334 65.2265 78.2211 65.1846 78.1118 65.1384C78.0029 65.0918 77.9055 65.0322 77.8192 64.9603C77.7338 64.8889 77.6647 64.7988 77.6125 64.6898C77.5607 64.5817 77.5348 64.4458 77.5348 64.2821C77.5348 64.1116 77.5675 63.9634 77.6327 63.8362C77.6983 63.7091 77.7861 63.6043 77.895 63.521C78.0043 63.4371 78.1281 63.3757 78.2657 63.3362C78.4034 63.2957 78.5449 63.2757 78.6893 63.2757C78.8907 63.2757 79.0739 63.3071 79.2389 63.3709C79.4034 63.4342 79.5565 63.5462 79.6979 63.7062L79.38 63.9515Z" fill="#182020"/>
      <path d="M92.5301 65.137C92.5301 64.9337 92.4966 64.7388 92.4298 64.5536C92.363 64.3683 92.2654 64.2055 92.1399 64.0654C92.0134 63.9253 91.8599 63.813 91.6783 63.7301C91.4977 63.6463 91.2917 63.6048 91.0632 63.6048C90.8347 63.6048 90.6297 63.6463 90.4481 63.7301C90.2666 63.813 90.1126 63.9253 89.9865 64.0654C89.8608 64.2055 89.7639 64.3683 89.6967 64.5536C89.6296 64.7388 89.596 64.9337 89.596 65.137C89.596 65.3404 89.6296 65.5347 89.6967 65.7199C89.7639 65.9057 89.8608 66.0686 89.9865 66.2087C90.1126 66.3487 90.2666 66.4606 90.4481 66.544C90.6297 66.6272 90.8347 66.6687 91.0632 66.6687C91.2917 66.6687 91.4977 66.6272 91.6783 66.544C91.8599 66.4606 92.0134 66.3487 92.1399 66.2087C92.2654 66.0686 92.363 65.9057 92.4298 65.7199C92.4966 65.5347 92.5301 65.3404 92.5301 65.137ZM92.9239 65.137C92.9239 65.407 92.8769 65.6557 92.7821 65.8828C92.689 66.1101 92.5581 66.3058 92.3919 66.4711C92.2257 66.6363 92.0288 66.7659 91.8021 66.8592C91.5754 66.9531 91.3288 66.9993 91.0632 66.9993C90.7977 66.9993 90.5511 66.9531 90.3244 66.8592C90.0978 66.7659 89.9011 66.6363 89.7347 66.4711C89.5682 66.3058 89.4378 66.1101 89.3438 65.8828C89.2497 65.6557 89.2028 65.407 89.2028 65.137C89.2028 64.8665 89.2497 64.6183 89.3438 64.3912C89.4378 64.164 89.5682 63.9678 89.7347 63.8025C89.9011 63.6377 90.0978 63.5077 90.3244 63.4148C90.5511 63.321 90.7977 63.2744 91.0632 63.2744C91.3288 63.2744 91.5754 63.321 91.8021 63.4148C92.0288 63.5077 92.2257 63.6377 92.3919 63.8025C92.5581 63.9678 92.689 64.164 92.7821 64.3912C92.8769 64.6183 92.9239 64.8665 92.9239 65.137Z" fill="#182020"/>
      <path d="M97.748 66.3689H97.7579V63.3646H98.1138V66.9096H97.6694L95.5857 63.8752H95.5757V66.9096H95.2198V63.3646H95.6642L97.748 66.3689Z" fill="#182020"/>
    </g>
  </g>
  <defs>
    <clipPath id="clip0_246_2190">
      <rect width="112" height="67" fill="white"/>
    </clipPath>
  </defs>
</svg>