<svg xmlns="http://www.w3.org/2000/svg" xmlns:xlink="http://www.w3.org/1999/xlink" version="1.1" width="112" height="67" viewBox="0 0 1080 1080" xml:space="preserve">
<desc>Created with Fabric.js 5.2.4</desc>
<defs>
</defs>
<g transform="matrix(1 0 0 1 540 540)" id="0806d34b-c48b-4083-8dcf-b5a139fb9272"  >
</g>
<g transform="matrix(1 0 0 1 540 540)" id="0659ff04-204c-4c7f-b3e3-46c2fec54de0"  >
<rect style="stroke: none; stroke-width: 1; stroke-dasharray: none; stroke-linecap: butt; stroke-dashoffset: 0; stroke-linejoin: miter; stroke-miterlimit: 4; fill: rgb(255,255,255); fill-rule: nonzero; opacity: 1; visibility: hidden;" vector-effect="non-scaling-stroke"  x="-540" y="-540" rx="0" ry="0" width="1080" height="1080" />
</g>
<g transform="matrix(0 0 0 0 0 0)"  >
<g style=""   >
</g>
</g>
<g transform="matrix(1 0 0 1 540 522.2)" clip-path="url(#CLIPPATH_12)"  >
<clipPath id="CLIPPATH_12" >
	<rect transform="matrix(1 0 0 1 0 17.8)" id="clip0_246_2190" x="-56" y="-33.5" rx="0" ry="0" width="112" height="67" />
</clipPath>
<path style="stroke: none; stroke-width: 1; stroke-dasharray: none; stroke-linecap: butt; stroke-dashoffset: 0; stroke-linejoin: miter; stroke-miterlimit: 4; fill: rgb(24,32,32); fill-rule: nonzero; opacity: 1;" vector-effect="non-scaling-stroke"  transform=" translate(-56, -15.7)" d="M 41.7536 19.3948 C 42.969 14.515 46.6587 10.5952 51.4186 9.02635 C 53.4767 15.3232 59.438 19.8892 66.4559 19.8892 C 67.7576 19.8892 69.0195 19.7254 70.2292 19.4277 C 68.5683 25.6936 62.8294 30.3163 55.9981 30.3163 C 49.1542 30.3163 43.4025 25.6779 41.7536 19.3948 Z M 41.2778 15.699 C 41.2778 9.44309 45.2371 4.10738 50.8023 2.02129 C 50.702 2.73094 50.6478 3.4544 50.6478 4.1912 C 50.6478 5.50048 50.8123 6.77166 51.1179 7.98807 C 46.6587 9.44544 43.0711 12.8247 41.3497 17.135 C 41.3032 16.6624 41.2778 16.1838 41.2778 15.699 Z M 55.9981 1.08208 C 64.1278 1.08208 70.7184 7.62657 70.7184 15.699 C 70.7184 16.1214 70.6964 16.5387 70.6609 16.9521 C 68.2958 11.2396 62.6376 7.20555 56.0422 7.20555 C 54.7036 7.20555 53.4047 7.37415 52.163 7.68706 C 51.8848 6.56591 51.7342 5.3957 51.7342 4.1912 C 51.7342 3.32152 51.8133 2.47042 51.9616 1.64313 C 53.2445 1.28021 54.5975 1.08208 55.9981 1.08208 Z M 66.4559 18.81 C 59.9315 18.81 54.3884 14.5726 52.4622 8.72439 C 53.6086 8.43862 54.8072 8.28431 56.0422 8.28431 C 62.5647 8.28431 68.1035 12.5213 70.0306 18.367 C 68.8853 18.6538 67.6895 18.81 66.4559 18.81 Z M 71.8067 15.699 C 71.8067 12.466 70.8211 9.4621 69.1342 6.96503 C 66.2972 2.7657 61.4731 0.00140381 55.9981 0.00140381 C 50.5231 0.00140381 45.699 2.7657 42.862 6.96503 C 41.1747 9.4621 40.1895 12.466 40.1895 15.699 C 40.1895 24.3686 47.2674 31.397 55.9981 31.397 C 64.7287 31.397 71.8067 24.3686 71.8067 15.699 Z" stroke-linecap="round" />
</g>
<g transform="matrix(1 0 0 1 587.87 555.78)" clip-path="url(#CLIPPATH_13)"  >
<clipPath id="CLIPPATH_13" >
	<rect transform="matrix(1 0 0 1 -47.87 -15.78)" id="clip0_246_2190" x="-56" y="-33.5" rx="0" ry="0" width="112" height="67" />
</clipPath>
<path style="stroke: none; stroke-width: 1; stroke-dasharray: none; stroke-linecap: butt; stroke-dashoffset: 0; stroke-linejoin: miter; stroke-miterlimit: 4; fill: rgb(24,32,32); fill-rule: nonzero; opacity: 1;" vector-effect="non-scaling-stroke"  transform=" translate(-103.87, -49.28)" d="M 104.846 58.7649 L 102.904 58.7649 L 102.904 50.591 L 95.7518 39.792 L 98.1806 39.792 L 103.875 48.7421 L 109.569 39.792 L 111.998 39.792 L 104.846 50.591 L 104.846 58.7649 Z" stroke-linecap="round" />
</g>
<g transform="matrix(1 0 0 1 489.76 555.78)" clip-path="url(#CLIPPATH_14)"  >
<clipPath id="CLIPPATH_14" >
	<rect transform="matrix(1 0 0 1 50.24 -15.78)" id="clip0_246_2190" x="-56" y="-33.5" rx="0" ry="0" width="112" height="67" />
</clipPath>
<path style="stroke: none; stroke-width: 1; stroke-dasharray: none; stroke-linecap: butt; stroke-dashoffset: 0; stroke-linejoin: miter; stroke-miterlimit: 4; fill: rgb(24,32,32); fill-rule: nonzero; opacity: 1;" vector-effect="non-scaling-stroke"  transform=" translate(-5.76, -49.28)" d="M 1.94272 58.7649 L -0.000732422 58.7649 L -0.000732422 39.792 L 11.5233 39.792 L 11.5233 41.5599 L 1.94272 41.5599 L 1.94272 48.0187 L 10.8485 48.0187 L 10.8485 49.7876 L 1.94272 49.7876 L 1.94272 58.7649 Z" stroke-linecap="round" />
</g>
<g transform="matrix(1 0 0 1 508.15 555.77)" clip-path="url(#CLIPPATH_15)"  >
<clipPath id="CLIPPATH_15" >
	<rect transform="matrix(1 0 0 1 31.85 -15.78)" id="clip0_246_2190" x="-56" y="-33.5" rx="0" ry="0" width="112" height="67" />
</clipPath>
<path style="stroke: none; stroke-width: 1; stroke-dasharray: none; stroke-linecap: butt; stroke-dashoffset: 0; stroke-linejoin: miter; stroke-miterlimit: 4; fill: rgb(24,32,32); fill-rule: nonzero; opacity: 1;" vector-effect="non-scaling-stroke"  transform=" translate(-24.15, -49.28)" d="M 19.998 52.0089 L 28.2817 52.0089 L 24.1535 42.041 L 19.998 52.0089 Z M 17.1648 58.7606 L 14.8986 58.7606 L 23.2086 39.7906 L 25.0979 39.7906 L 33.4084 58.7606 L 31.1416 58.7606 L 29.037 53.7768 L 19.2694 53.7768 L 17.1648 58.7606 Z" stroke-linecap="round" />
</g>
<g transform="matrix(1 0 0 1 528.71 555.78)" clip-path="url(#CLIPPATH_16)"  >
<clipPath id="CLIPPATH_16" >
	<rect transform="matrix(1 0 0 1 11.3 -15.78)" id="clip0_246_2190" x="-56" y="-33.5" rx="0" ry="0" width="112" height="67" />
</clipPath>
<path style="stroke: none; stroke-width: 1; stroke-dasharray: none; stroke-linecap: butt; stroke-dashoffset: 0; stroke-linejoin: miter; stroke-miterlimit: 4; fill: rgb(24,32,32); fill-rule: nonzero; opacity: 1;" vector-effect="non-scaling-stroke"  transform=" translate(-44.7, -49.28)" d="M 44.6053 55.8708 L 44.6595 55.8708 L 50.9205 39.7917 L 53.0256 39.7917 L 45.577 58.7651 L 43.6339 58.7651 L 36.3743 39.7917 L 38.5336 39.7917 L 44.6053 55.8708 Z" stroke-linecap="round" />
</g>
<g transform="matrix(1 0 0 1 550.22 555.78)" clip-path="url(#CLIPPATH_17)"  >
<clipPath id="CLIPPATH_17" >
	<rect transform="matrix(1 0 0 1 -10.22 -15.78)" id="clip0_246_2190" x="-56" y="-33.5" rx="0" ry="0" width="112" height="67" />
</clipPath>
<path style="stroke: none; stroke-width: 1; stroke-dasharray: none; stroke-linecap: butt; stroke-dashoffset: 0; stroke-linejoin: miter; stroke-miterlimit: 4; fill: rgb(24,32,32); fill-rule: nonzero; opacity: 1;" vector-effect="non-scaling-stroke"  transform=" translate(-66.22, -49.28)" d="M 74.0615 49.2808 C 74.0615 48.193 73.8817 47.1538 73.5225 46.1641 C 73.1632 45.1744 72.6471 44.3052 71.9732 43.556 C 71.3003 42.8073 70.4787 42.21 69.5089 41.7643 C 68.5386 41.3189 67.4436 41.0955 66.2225 41.0955 C 65.0009 41.0955 63.9058 41.3189 62.936 41.7643 C 61.9662 42.21 61.1447 42.8073 60.4712 43.556 C 59.7979 44.3052 59.2818 45.1744 58.9225 46.1641 C 58.5632 47.1538 58.3834 48.193 58.3834 49.2808 C 58.3834 50.3686 58.5632 51.4074 58.9225 52.3971 C 59.2818 53.3868 59.7979 54.256 60.4712 55.0052 C 61.1447 55.7539 61.9662 56.3521 62.936 56.7969 C 63.9058 57.2432 65.0009 57.4656 66.2225 57.4656 C 67.4436 57.4656 68.5386 57.2432 69.5089 56.7969 C 70.4787 56.3521 71.3003 55.7539 71.9732 55.0052 C 72.6471 54.256 73.1632 53.3868 73.5225 52.3971 C 73.8817 51.4074 74.0615 50.3686 74.0615 49.2808 Z M 76.1628 49.2808 C 76.1628 50.7253 75.9105 52.0536 75.4083 53.2663 C 74.9057 54.4793 74.2097 55.5267 73.3205 56.4092 C 72.4323 57.2922 71.3809 57.9833 70.1689 58.4825 C 68.9564 58.9815 67.6407 59.2316 66.2225 59.2316 C 64.8033 59.2316 63.4881 58.9815 62.2766 58.4825 C 61.0635 57.9833 60.0136 57.2922 59.1244 56.4092 C 58.2352 55.5267 57.5393 54.4793 57.0366 53.2663 C 56.534 52.0536 56.2826 50.7253 56.2826 49.2808 C 56.2826 47.8363 56.534 46.5084 57.0366 45.2949 C 57.5393 44.0823 58.2352 43.0349 59.1244 42.152 C 60.0136 41.2694 61.0635 40.5788 62.2766 40.0787 C 63.4881 39.5801 64.8033 39.3295 66.2225 39.3295 C 67.6407 39.3295 68.9564 39.5801 70.1689 40.0787 C 71.3809 40.5788 72.4323 41.2694 73.3205 42.152 C 74.2097 43.0349 74.9057 44.0823 75.4083 45.2949 C 75.9105 46.5084 76.1628 47.8363 76.1628 49.2808 Z" stroke-linecap="round" />
</g>
<g transform="matrix(1 0 0 1 570.18 555.78)" clip-path="url(#CLIPPATH_18)"  >
<clipPath id="CLIPPATH_18" >
	<rect transform="matrix(1 0 0 1 -30.18 -15.78)" id="clip0_246_2190" x="-56" y="-33.5" rx="0" ry="0" width="112" height="67" />
</clipPath>
<path style="stroke: none; stroke-width: 1; stroke-dasharray: none; stroke-linecap: butt; stroke-dashoffset: 0; stroke-linejoin: miter; stroke-miterlimit: 4; fill: rgb(24,32,32); fill-rule: nonzero; opacity: 1;" vector-effect="non-scaling-stroke"  transform=" translate(-86.18, -49.28)" d="M 81.7264 48.1792 L 85.1801 48.1792 C 86.0444 48.1792 86.7773 48.0901 87.3797 47.9115 C 87.9826 47.733 88.4637 47.4962 88.8239 47.2014 C 89.1836 46.9062 89.445 46.558 89.6062 46.156 C 89.7682 45.7545 89.8493 45.3211 89.8493 44.8562 C 89.8493 44.4099 89.7682 43.9851 89.6062 43.5837 C 89.445 43.1812 89.1836 42.8287 88.8239 42.5249 C 88.4637 42.2215 87.9826 41.9853 87.3797 41.8148 C 86.7773 41.6452 86.0444 41.5599 85.1801 41.5599 L 81.7264 41.5599 L 81.7264 48.1792 Z M 81.7264 58.7649 L 79.7833 58.7649 L 79.7833 39.7916 L 85.6659 39.7916 C 87.61 39.7916 89.1428 40.2116 90.2675 41.0508 C 91.3919 41.8909 91.9547 43.1593 91.9547 44.8562 C 91.9547 46.1788 91.5356 47.2909 90.6992 48.1925 C 89.8628 49.0951 88.6526 49.618 87.0698 49.7604 L 92.5743 58.7649 L 90.2004 58.7649 L 84.9648 49.9481 L 81.7264 49.9481 L 81.7264 58.7649 Z" stroke-linecap="round" />
</g>
<g transform="matrix(1.3 0 0 1.3 486.69 570.2)" clip-path="url(#CLIPPATH_19)"  >
<clipPath id="CLIPPATH_19" >
	<rect transform="matrix(1 0 0 1 41.15 -31.68)" id="clip0_246_2190" x="-56" y="-33.5" rx="0" ry="0" width="112" height="67" />
</clipPath>
<path style="stroke: none; stroke-width: 1; stroke-dasharray: none; stroke-linecap: butt; stroke-dashoffset: 0; stroke-linejoin: miter; stroke-miterlimit: 4; fill: rgb(24,32,32); fill-rule: nonzero; opacity: 1;" vector-effect="non-scaling-stroke"  transform=" translate(-14.85, -65.18)" d="M 14.2462 66.1833 C 14.2798 66.3334 14.3422 66.4519 14.4338 66.5391 C 14.5249 66.6257 14.651 66.6686 14.8131 66.6686 C 14.945 66.6686 15.052 66.6429 15.135 66.5909 C 15.2175 66.5395 15.2817 66.4729 15.3273 66.3909 C 15.3724 66.3095 15.404 66.2157 15.4208 66.1104 C 15.4376 66.0051 15.4463 65.8975 15.4463 65.7875 L 15.4463 63.3643 L 15.8093 63.3643 L 15.8093 65.938 C 15.8093 66.058 15.793 66.1804 15.7613 66.3057 C 15.7293 66.4314 15.6741 66.5448 15.595 66.6463 C 15.5158 66.7481 15.4127 66.8324 15.2851 66.8991 C 15.1571 66.9658 14.9973 66.9992 14.8059 66.9992 C 14.5604 66.9992 14.3556 66.9367 14.1905 66.8115 C 14.0261 66.6862 13.9235 66.5014 13.8832 66.258 L 14.2462 66.1833 Z" stroke-linecap="round" />
</g>
<g transform="matrix(1.3 0 0 1.3 492.62 570.15)" clip-path="url(#CLIPPATH_20)"  >
<clipPath id="CLIPPATH_20" >
	<rect transform="matrix(1 0 0 1 36.58 -31.64)" id="clip0_246_2190" x="-56" y="-33.5" rx="0" ry="0" width="112" height="67" />
</clipPath>
<path style="stroke: none; stroke-width: 1; stroke-dasharray: none; stroke-linecap: butt; stroke-dashoffset: 0; stroke-linejoin: miter; stroke-miterlimit: 4; fill: rgb(24,32,32); fill-rule: nonzero; opacity: 1;" vector-effect="non-scaling-stroke"  transform=" translate(-19.42, -65.14)" d="M 18.6423 66.5796 L 20.5531 66.5796 L 20.5531 66.9102 L 18.2792 66.9102 L 18.2792 63.3652 L 20.4927 63.3652 L 20.4927 63.6958 L 18.6423 63.6958 L 18.6423 64.9022 L 20.3719 64.9022 L 20.3719 65.2327 L 18.6423 65.2327 L 18.6423 66.5796 Z" stroke-linecap="round" />
</g>
<g transform="matrix(1.3 0 0 1.3 499.58 570.15)" clip-path="url(#CLIPPATH_21)"  >
<clipPath id="CLIPPATH_21" >
	<rect transform="matrix(1 0 0 1 31.21 -31.64)" id="clip0_246_2190" x="-56" y="-33.5" rx="0" ry="0" width="112" height="67" />
</clipPath>
<path style="stroke: none; stroke-width: 1; stroke-dasharray: none; stroke-linecap: butt; stroke-dashoffset: 0; stroke-linejoin: miter; stroke-miterlimit: 4; fill: rgb(24,32,32); fill-rule: nonzero; opacity: 1;" vector-effect="non-scaling-stroke"  transform=" translate(-24.79, -65.14)" d="M 23.6695 66.3993 L 23.6796 66.3993 L 24.577 63.365 L 25.0105 63.365 L 25.908 66.3993 L 25.918 66.3993 L 26.7655 63.365 L 27.1689 63.365 L 26.1146 66.9099 L 25.6912 66.9099 L 24.7938 63.8756 L 24.7837 63.8756 L 23.8863 66.9099 L 23.4628 66.9099 L 22.4091 63.365 L 22.812 63.365 L 23.6695 66.3993 Z" stroke-linecap="round" />
</g>
<g transform="matrix(1.3 0 0 1.3 506.86 570.15)" clip-path="url(#CLIPPATH_22)"  >
<clipPath id="CLIPPATH_22" >
	<rect transform="matrix(1 0 0 1 25.59 -31.64)" id="clip0_246_2190" x="-56" y="-33.5" rx="0" ry="0" width="112" height="67" />
</clipPath>
<path style="stroke: none; stroke-width: 1; stroke-dasharray: none; stroke-linecap: butt; stroke-dashoffset: 0; stroke-linejoin: miter; stroke-miterlimit: 4; fill: rgb(24,32,32); fill-rule: nonzero; opacity: 1;" vector-effect="non-scaling-stroke"  transform=" translate(-30.41, -65.14)" d="M 29.6389 66.5796 L 31.5497 66.5796 L 31.5497 66.9102 L 29.2758 66.9102 L 29.2758 63.3652 L 31.4893 63.3652 L 31.4893 63.6958 L 29.6389 63.6958 L 29.6389 64.9022 L 31.3679 64.9022 L 31.3679 65.2327 L 29.6389 65.2327 L 29.6389 66.5796 Z" stroke-linecap="round" />
</g>
<g transform="matrix(1.3 0 0 1.3 512.6 570.15)" clip-path="url(#CLIPPATH_23)"  >
<clipPath id="CLIPPATH_23" >
	<rect transform="matrix(1 0 0 1 21.15 -31.64)" id="clip0_246_2190" x="-56" y="-33.5" rx="0" ry="0" width="112" height="67" />
</clipPath>
<path style="stroke: none; stroke-width: 1; stroke-dasharray: none; stroke-linecap: butt; stroke-dashoffset: 0; stroke-linejoin: miter; stroke-miterlimit: 4; fill: rgb(24,32,32); fill-rule: nonzero; opacity: 1;" vector-effect="non-scaling-stroke"  transform=" translate(-34.85, -65.14)" d="M 34.1949 66.5796 L 35.8587 66.5796 L 35.8587 66.9102 L 33.8319 66.9102 L 33.8319 63.3652 L 34.1949 63.3652 L 34.1949 66.5796 Z" stroke-linecap="round" />
</g>
<g transform="matrix(1.3 0 0 1.3 518.18 570.15)" clip-path="url(#CLIPPATH_24)"  >
<clipPath id="CLIPPATH_24" >
	<rect transform="matrix(1 0 0 1 16.84 -31.64)" id="clip0_246_2190" x="-56" y="-33.5" rx="0" ry="0" width="112" height="67" />
</clipPath>
<path style="stroke: none; stroke-width: 1; stroke-dasharray: none; stroke-linecap: butt; stroke-dashoffset: 0; stroke-linejoin: miter; stroke-miterlimit: 4; fill: rgb(24,32,32); fill-rule: nonzero; opacity: 1;" vector-effect="non-scaling-stroke"  transform=" translate(-39.16, -65.14)" d="M 38.3249 64.9317 L 38.97 64.9317 C 39.1317 64.9317 39.2683 64.9155 39.3815 64.8822 C 39.4938 64.8484 39.5839 64.804 39.6511 64.7493 C 39.7182 64.694 39.7672 64.6288 39.7973 64.5541 C 39.827 64.4788 39.8429 64.3978 39.8429 64.3107 C 39.8429 64.2277 39.827 64.1483 39.7973 64.0735 C 39.7672 63.9982 39.7182 63.932 39.6511 63.8754 C 39.5839 63.8187 39.4938 63.7749 39.3815 63.7429 C 39.2683 63.711 39.1317 63.6953 38.97 63.6953 L 38.3249 63.6953 L 38.3249 64.9317 Z M 38.3249 66.9097 L 37.9618 66.9097 L 37.9618 63.3648 L 39.0611 63.3648 C 39.4242 63.3648 39.7105 63.4434 39.9211 63.6 C 40.1307 63.7572 40.2358 63.9939 40.2358 64.3107 C 40.2358 64.5583 40.158 64.766 40.0016 64.9341 C 39.8448 65.1032 39.6189 65.2003 39.3235 65.227 L 40.3518 66.9097 L 39.9082 66.9097 L 38.9297 65.2623 L 38.3249 65.2623 L 38.3249 66.9097 Z" stroke-linecap="round" />
</g>
<g transform="matrix(1.3 0 0 1.3 523.89 570.15)" clip-path="url(#CLIPPATH_25)"  >
<clipPath id="CLIPPATH_25" >
	<rect transform="matrix(1 0 0 1 12.44 -31.64)" id="clip0_246_2190" x="-56" y="-33.5" rx="0" ry="0" width="112" height="67" />
</clipPath>
<path style="stroke: none; stroke-width: 1; stroke-dasharray: none; stroke-linecap: butt; stroke-dashoffset: 0; stroke-linejoin: miter; stroke-miterlimit: 4; fill: rgb(24,32,32); fill-rule: nonzero; opacity: 1;" vector-effect="non-scaling-stroke"  transform=" translate(-43.56, -65.14)" d="M 43.7387 66.9099 L 43.3756 66.9099 L 43.3756 65.3825 L 42.0398 63.3651 L 42.493 63.3651 L 43.5573 65.0377 L 44.6211 63.3651 L 45.0749 63.3651 L 43.7387 65.3825 L 43.7387 66.9099 Z" stroke-linecap="round" />
</g>
<g transform="matrix(1.3 0 0 1.3 532.43 570.15)" clip-path="url(#CLIPPATH_26)"  >
<clipPath id="CLIPPATH_26" >
	<rect transform="matrix(1 0 0 1 5.85 -31.64)" id="clip0_246_2190" x="-56" y="-33.5" rx="0" ry="0" width="112" height="67" />
</clipPath>
<path style="stroke: none; stroke-width: 1; stroke-dasharray: none; stroke-linecap: butt; stroke-dashoffset: 0; stroke-linejoin: miter; stroke-miterlimit: 4; fill: rgb(24,32,32); fill-rule: nonzero; opacity: 1;" vector-effect="non-scaling-stroke"  transform=" translate(-50.15, -65.14)" d="M 49.0318 66.3993 L 49.0419 66.3993 L 49.9393 63.365 L 50.3729 63.365 L 51.2703 66.3993 L 51.2803 66.3993 L 52.1279 63.365 L 52.5312 63.365 L 51.4775 66.9099 L 51.054 66.9099 L 50.1561 63.8756 L 50.146 63.8756 L 49.2486 66.9099 L 48.8252 66.9099 L 47.7714 63.365 L 48.1747 63.365 L 49.0318 66.3993 Z" stroke-linecap="round" />
</g>
<g transform="matrix(1.3 0 0 1.3 538.46 570.15)" clip-path="url(#CLIPPATH_27)"  >
<clipPath id="CLIPPATH_27" >
	<rect transform="matrix(1 0 0 1 1.19 -31.64)" id="clip0_246_2190" x="-56" y="-33.5" rx="0" ry="0" width="112" height="67" />
</clipPath>
<path style="stroke: none; stroke-width: 1; stroke-dasharray: none; stroke-linecap: butt; stroke-dashoffset: 0; stroke-linejoin: miter; stroke-miterlimit: 4; fill: rgb(24,32,32); fill-rule: nonzero; opacity: 1;" vector-effect="non-scaling-stroke"  transform=" translate(-54.81, -65.14)" d="M 54.994 66.9099 L 54.6309 66.9099 L 54.6309 63.365 L 54.994 63.365 L 54.994 66.9099 Z" stroke-linecap="round" />
</g>
<g transform="matrix(1.3 0 0 1.3 543.24 570.15)" clip-path="url(#CLIPPATH_28)"  >
<clipPath id="CLIPPATH_28" >
	<rect transform="matrix(1 0 0 1 -2.5 -31.64)" id="clip0_246_2190" x="-56" y="-33.5" rx="0" ry="0" width="112" height="67" />
</clipPath>
<path style="stroke: none; stroke-width: 1; stroke-dasharray: none; stroke-linecap: butt; stroke-dashoffset: 0; stroke-linejoin: miter; stroke-miterlimit: 4; fill: rgb(24,32,32); fill-rule: nonzero; opacity: 1;" vector-effect="non-scaling-stroke"  transform=" translate(-58.5, -65.14)" d="M 58.6815 66.9099 L 58.3185 66.9099 L 58.3185 63.6955 L 57.1233 63.6955 L 57.1233 63.3651 L 59.8763 63.3651 L 59.8763 63.6955 L 58.6815 63.6955 L 58.6815 66.9099 Z" stroke-linecap="round" />
</g>
<g transform="matrix(1.3 0 0 1.3 549.44 570.15)" clip-path="url(#CLIPPATH_29)"  >
<clipPath id="CLIPPATH_29" >
	<rect transform="matrix(1 0 0 1 -7.29 -31.64)" id="clip0_246_2190" x="-56" y="-33.5" rx="0" ry="0" width="112" height="67" />
</clipPath>
<path style="stroke: none; stroke-width: 1; stroke-dasharray: none; stroke-linecap: butt; stroke-dashoffset: 0; stroke-linejoin: miter; stroke-miterlimit: 4; fill: rgb(24,32,32); fill-rule: nonzero; opacity: 1;" vector-effect="non-scaling-stroke"  transform=" translate(-63.29, -65.14)" d="M 61.952 63.3642 L 62.3157 63.3642 L 62.3157 64.9011 L 64.2615 64.9011 L 64.2615 63.3642 L 64.6246 63.3642 L 64.6246 66.909 L 64.2615 66.909 L 64.2615 65.2316 L 62.3157 65.2316 L 62.3157 66.909 L 61.952 66.909 L 61.952 63.3642 Z" stroke-linecap="round" />
</g>
<g transform="matrix(1.3 0 0 1.3 557.49 570.15)" clip-path="url(#CLIPPATH_30)"  >
<clipPath id="CLIPPATH_30" >
	<rect transform="matrix(1 0 0 1 -13.5 -31.64)" id="clip0_246_2190" x="-56" y="-33.5" rx="0" ry="0" width="112" height="67" />
</clipPath>
<path style="stroke: none; stroke-width: 1; stroke-dasharray: none; stroke-linecap: butt; stroke-dashoffset: 0; stroke-linejoin: miter; stroke-miterlimit: 4; fill: rgb(24,32,32); fill-rule: nonzero; opacity: 1;" vector-effect="non-scaling-stroke"  transform=" translate(-69.5, -65.14)" d="M 68.754 64.9317 L 69.3391 64.9317 C 69.5002 64.9317 69.6374 64.9155 69.7497 64.8822 C 69.8629 64.8484 69.9525 64.804 70.0202 64.7493 C 70.0869 64.694 70.1357 64.6288 70.166 64.5541 C 70.1961 64.4788 70.211 64.3978 70.211 64.3107 C 70.211 64.2277 70.1961 64.1483 70.166 64.0735 C 70.1357 63.9982 70.0869 63.932 70.0202 63.8754 C 69.9525 63.8187 69.8629 63.7749 69.7497 63.7429 C 69.6374 63.711 69.5002 63.6953 69.3391 63.6953 L 68.754 63.6953 L 68.754 64.9317 Z M 68.3909 63.3648 L 69.4298 63.3648 C 69.7929 63.3648 70.0796 63.4434 70.2893 63.6 C 70.4993 63.7572 70.6043 63.9939 70.6043 64.3107 C 70.6043 64.6283 70.4993 64.8664 70.2893 65.0246 C 70.0796 65.1832 69.7929 65.2623 69.4298 65.2623 L 68.754 65.2623 L 68.754 66.9097 L 68.3909 66.9097 L 68.3909 63.3648 Z" stroke-linecap="round" />
</g>
<g transform="matrix(1.3 0 0 1.3 563.16 570.15)" clip-path="url(#CLIPPATH_31)"  >
<clipPath id="CLIPPATH_31" >
	<rect transform="matrix(1 0 0 1 -17.87 -31.64)" id="clip0_246_2190" x="-56" y="-33.5" rx="0" ry="0" width="112" height="67" />
</clipPath>
<path style="stroke: none; stroke-width: 1; stroke-dasharray: none; stroke-linecap: butt; stroke-dashoffset: 0; stroke-linejoin: miter; stroke-miterlimit: 4; fill: rgb(24,32,32); fill-rule: nonzero; opacity: 1;" vector-effect="non-scaling-stroke"  transform=" translate(-73.87, -65.14)" d="M 73.0979 65.6477 L 74.6461 65.6477 L 73.8739 63.7849 L 73.0979 65.6477 Z M 72.5683 66.9093 L 72.1448 66.9093 L 73.6979 63.3649 L 74.0509 63.3649 L 75.6039 66.9093 L 75.1804 66.9093 L 74.7866 65.9781 L 72.9616 65.9781 L 72.5683 66.9093 Z" stroke-linecap="round" />
</g>
<g transform="matrix(1.3 0 0 1.3 569.29 570.15)" clip-path="url(#CLIPPATH_32)"  >
<clipPath id="CLIPPATH_32" >
	<rect transform="matrix(1 0 0 1 -22.61 -31.64)" id="clip0_246_2190" x="-56" y="-33.5" rx="0" ry="0" width="112" height="67" />
</clipPath>
<path style="stroke: none; stroke-width: 1; stroke-dasharray: none; stroke-linecap: butt; stroke-dashoffset: 0; stroke-linejoin: miter; stroke-miterlimit: 4; fill: rgb(24,32,32); fill-rule: nonzero; opacity: 1;" vector-effect="non-scaling-stroke"  transform=" translate(-78.61, -65.14)" d="M 79.38 63.9515 C 79.2222 63.7214 78.9914 63.6062 78.6893 63.6062 C 78.5952 63.6062 78.5027 63.6181 78.4115 63.6434 C 78.3209 63.6686 78.2398 63.7072 78.1675 63.7591 C 78.095 63.811 78.037 63.8772 77.9933 63.9586 C 77.9502 64.0406 77.9281 64.1368 77.9281 64.2468 C 77.9281 64.4068 77.9732 64.5316 78.0643 64.6198 C 78.1549 64.7083 78.2676 64.7808 78.402 64.8379 C 78.5363 64.8946 78.6835 64.945 78.8433 64.9907 C 79.003 65.0355 79.1502 65.0956 79.2845 65.1708 C 79.4188 65.246 79.5315 65.3451 79.6221 65.469 C 79.7128 65.5923 79.7583 65.7604 79.7583 65.9747 C 79.7583 66.1342 79.7238 66.2786 79.6547 66.4077 C 79.5862 66.5362 79.495 66.6434 79.3829 66.7301 C 79.2701 66.8173 79.144 66.8839 79.0044 66.9306 C 78.8649 66.9778 78.7248 67.0006 78.5832 67.0006 C 78.365 67.0006 78.1574 66.9597 77.9607 66.8782 C 77.7641 66.7963 77.5966 66.662 77.459 66.4749 L 77.7914 66.2395 C 77.8691 66.37 77.9761 66.4743 78.1132 66.5525 C 78.2509 66.631 78.413 66.6701 78.601 66.6701 C 78.6912 66.6701 78.7818 66.6558 78.872 66.6277 C 78.9631 66.5996 79.0442 66.5577 79.1161 66.5025 C 79.1886 66.4472 79.2475 66.3801 79.2945 66.2996 C 79.3416 66.2195 79.3651 66.1276 79.3651 66.0242 C 79.3651 65.9005 79.3391 65.7981 79.2869 65.7166 C 79.2346 65.6346 79.166 65.5666 79.0802 65.5109 C 78.9943 65.4561 78.8969 65.4104 78.7881 65.3737 C 78.6782 65.337 78.566 65.3004 78.4499 65.2632 C 78.3334 65.2265 78.2211 65.1846 78.1118 65.1384 C 78.0029 65.0918 77.9055 65.0322 77.8192 64.9603 C 77.7338 64.8889 77.6647 64.7988 77.6125 64.6898 C 77.5607 64.5817 77.5348 64.4458 77.5348 64.2821 C 77.5348 64.1116 77.5675 63.9634 77.6327 63.8362 C 77.6983 63.7091 77.7861 63.6043 77.895 63.521 C 78.0043 63.4371 78.1281 63.3757 78.2657 63.3362 C 78.4034 63.2957 78.5449 63.2757 78.6893 63.2757 C 78.8907 63.2757 79.0739 63.3071 79.2389 63.3709 C 79.4034 63.4342 79.5565 63.5462 79.6979 63.7062 L 79.38 63.9515 Z" stroke-linecap="round" />
</g>
<g transform="matrix(1.3 0 0 1.3 575 570.15)" clip-path="url(#CLIPPATH_33)"  >
<clipPath id="CLIPPATH_33" >
	<rect transform="matrix(1 0 0 1 -27.01 -31.64)" id="clip0_246_2190" x="-56" y="-33.5" rx="0" ry="0" width="112" height="67" />
</clipPath>
<path style="stroke: none; stroke-width: 1; stroke-dasharray: none; stroke-linecap: butt; stroke-dashoffset: 0; stroke-linejoin: miter; stroke-miterlimit: 4; fill: rgb(24,32,32); fill-rule: nonzero; opacity: 1;" vector-effect="non-scaling-stroke"  transform=" translate(-83.01, -65.14)" d="M 83.785 63.9515 C 83.6272 63.7214 83.3965 63.6062 83.0943 63.6062 C 83.0003 63.6062 82.9078 63.6181 82.8167 63.6434 C 82.726 63.6686 82.645 63.7072 82.5725 63.7591 C 82.5001 63.811 82.442 63.8772 82.3984 63.9586 C 82.3552 64.0406 82.3332 64.1368 82.3332 64.2468 C 82.3332 64.4068 82.3782 64.5316 82.4694 64.6198 C 82.5601 64.7083 82.6728 64.7808 82.807 64.8379 C 82.9413 64.8946 83.0885 64.945 83.2483 64.9907 C 83.4076 65.0355 83.5552 65.0956 83.6896 65.1708 C 83.8239 65.246 83.9361 65.3451 84.0272 65.469 C 84.1179 65.5923 84.1629 65.7604 84.1629 65.9747 C 84.1629 66.1342 84.1289 66.2786 84.0599 66.4077 C 83.9912 66.5362 83.9001 66.6434 83.7879 66.7301 C 83.6752 66.8173 83.549 66.8839 83.4095 66.9306 C 83.2699 66.9778 83.1298 67.0006 82.9884 67.0006 C 82.7701 67.0006 82.5624 66.9597 82.3658 66.8782 C 82.1692 66.7963 82.0018 66.662 81.8641 66.4749 L 82.1964 66.2395 C 82.2742 66.37 82.3811 66.4743 82.5183 66.5525 C 82.656 66.631 82.818 66.6701 83.0061 66.6701 C 83.0962 66.6701 83.1869 66.6558 83.2771 66.6277 C 83.3677 66.5996 83.4493 66.5577 83.5212 66.5025 C 83.5936 66.4472 83.6526 66.3801 83.6997 66.2996 C 83.7466 66.2195 83.7701 66.1276 83.7701 66.0242 C 83.7701 65.9005 83.7437 65.7981 83.692 65.7166 C 83.6397 65.6346 83.5711 65.5666 83.4852 65.5109 C 83.3993 65.4561 83.3015 65.4104 83.1931 65.3737 C 83.0833 65.337 82.971 65.3004 82.855 65.2632 C 82.7385 65.2265 82.6262 65.1846 82.5169 65.1384 C 82.408 65.0918 82.3106 65.0322 82.2242 64.9603 C 82.1389 64.8889 82.0699 64.7988 82.0176 64.6898 C 81.9657 64.5817 81.9394 64.4458 81.9394 64.2821 C 81.9394 64.1116 81.9725 63.9634 82.0377 63.8362 C 82.1034 63.7091 82.1912 63.6043 82.3 63.521 C 82.4094 63.4371 82.5332 63.3757 82.6708 63.3362 C 82.8085 63.2957 82.95 63.2757 83.0943 63.2757 C 83.2957 63.2757 83.479 63.3071 83.644 63.3709 C 83.8085 63.4342 83.9615 63.5462 84.103 63.7062 L 83.785 63.9515 Z" stroke-linecap="round" />
</g>
<g transform="matrix(1.3 0 0 1.3 579.75 570.15)" clip-path="url(#CLIPPATH_34)"  >
<clipPath id="CLIPPATH_34" >
	<rect transform="matrix(1 0 0 1 -30.68 -31.64)" id="clip0_246_2190" x="-56" y="-33.5" rx="0" ry="0" width="112" height="67" />
</clipPath>
<path style="stroke: none; stroke-width: 1; stroke-dasharray: none; stroke-linecap: butt; stroke-dashoffset: 0; stroke-linejoin: miter; stroke-miterlimit: 4; fill: rgb(24,32,32); fill-rule: nonzero; opacity: 1;" vector-effect="non-scaling-stroke"  transform=" translate(-86.68, -65.14)" d="M 86.865 66.9099 L 86.502 66.9099 L 86.502 63.365 L 86.865 63.365 L 86.865 66.9099 Z" stroke-linecap="round" />
</g>
<g transform="matrix(1.3 0 0 1.3 585.42 570.15)" clip-path="url(#CLIPPATH_35)"  >
<clipPath id="CLIPPATH_35" >
	<rect transform="matrix(1 0 0 1 -35.06 -31.64)" id="clip0_246_2190" x="-56" y="-33.5" rx="0" ry="0" width="112" height="67" />
</clipPath>
<path style="stroke: none; stroke-width: 1; stroke-dasharray: none; stroke-linecap: butt; stroke-dashoffset: 0; stroke-linejoin: miter; stroke-miterlimit: 4; fill: rgb(24,32,32); fill-rule: nonzero; opacity: 1;" vector-effect="non-scaling-stroke"  transform=" translate(-91.06, -65.14)" d="M 92.5301 65.137 C 92.5301 64.9337 92.4966 64.7388 92.4298 64.5536 C 92.363 64.3683 92.2654 64.2055 92.1399 64.0654 C 92.0134 63.9253 91.8599 63.813 91.6783 63.7301 C 91.4977 63.6463 91.2917 63.6048 91.0632 63.6048 C 90.8347 63.6048 90.6297 63.6463 90.4481 63.7301 C 90.2666 63.813 90.1126 63.9253 89.9865 64.0654 C 89.8608 64.2055 89.7639 64.3683 89.6967 64.5536 C 89.6296 64.7388 89.596 64.9337 89.596 65.137 C 89.596 65.3404 89.6296 65.5347 89.6967 65.7199 C 89.7639 65.9057 89.8608 66.0686 89.9865 66.2087 C 90.1126 66.3487 90.2666 66.4606 90.4481 66.544 C 90.6297 66.6272 90.8347 66.6687 91.0632 66.6687 C 91.2917 66.6687 91.4977 66.6272 91.6783 66.544 C 91.8599 66.4606 92.0134 66.3487 92.1399 66.2087 C 92.2654 66.0686 92.363 65.9057 92.4298 65.7199 C 92.4966 65.5347 92.5301 65.3404 92.5301 65.137 Z M 92.9239 65.137 C 92.9239 65.407 92.8769 65.6557 92.7821 65.8828 C 92.689 66.1101 92.5581 66.3058 92.3919 66.4711 C 92.2257 66.6363 92.0288 66.7659 91.8021 66.8592 C 91.5754 66.9531 91.3288 66.9993 91.0632 66.9993 C 90.7977 66.9993 90.5511 66.9531 90.3244 66.8592 C 90.0978 66.7659 89.9011 66.6363 89.7347 66.4711 C 89.5682 66.3058 89.4378 66.1101 89.3438 65.8828 C 89.2497 65.6557 89.2028 65.407 89.2028 65.137 C 89.2028 64.8665 89.2497 64.6183 89.3438 64.3912 C 89.4378 64.164 89.5682 63.9678 89.7347 63.8025 C 89.9011 63.6377 90.0978 63.5077 90.3244 63.4148 C 90.5511 63.321 90.7977 63.2744 91.0632 63.2744 C 91.3288 63.2744 91.5754 63.321 91.8021 63.4148 C 92.0288 63.5077 92.2257 63.6377 92.3919 63.8025 C 92.5581 63.9678 92.689 64.164 92.7821 64.3912 C 92.8769 64.6183 92.9239 64.8665 92.9239 65.137 Z" stroke-linecap="round" />
</g>
<g transform="matrix(1.3 0 0 1.3 592.68 570.15)" clip-path="url(#CLIPPATH_36)"  >
<clipPath id="CLIPPATH_36" >
	<rect transform="matrix(1 0 0 1 -40.67 -31.64)" id="clip0_246_2190" x="-56" y="-33.5" rx="0" ry="0" width="112" height="67" />
</clipPath>
<path style="stroke: none; stroke-width: 1; stroke-dasharray: none; stroke-linecap: butt; stroke-dashoffset: 0; stroke-linejoin: miter; stroke-miterlimit: 4; fill: rgb(24,32,32); fill-rule: nonzero; opacity: 1;" vector-effect="non-scaling-stroke"  transform=" translate(-96.67, -65.14)" d="M 97.748 66.3689 L 97.7579 66.3689 L 97.7579 63.3646 L 98.1138 63.3646 L 98.1138 66.9096 L 97.6694 66.9096 L 95.5857 63.8752 L 95.5757 63.8752 L 95.5757 66.9096 L 95.2198 66.9096 L 95.2198 63.3646 L 95.6642 63.3646 L 97.748 66.3689 Z" stroke-linecap="round" />
</g>
</svg>