<svg width="180" height="102" viewBox="0 0 112 67" fill="none" xmlns="http://www.w3.org/2000/svg">
  <g clip-path="url(#clip0_246_2190)">
    <path d="M41.7536 19.3948C42.969 14.515 46.6587 10.5952 51.4186 9.02635C53.4767 15.3232 59.438 19.8892 66.4559 19.8892C67.7576 19.8892 69.0195 19.7254 70.2292 19.4277C68.5683 25.6936 62.8294 30.3163 55.9981 30.3163C49.1542 30.3163 43.4025 25.6779 41.7536 19.3948ZM41.2778 15.699C41.2778 9.44309 45.2371 4.10738 50.8023 2.02129C50.702 2.73094 50.6478 3.4544 50.6478 4.1912C50.6478 5.50048 50.8123 6.77166 51.1179 7.98807C46.6587 9.44544 43.0711 12.8247 41.3497 17.135C41.3032 16.6624 41.2778 16.1838 41.2778 15.699ZM55.9981 1.08208C64.1278 1.08208 70.7184 7.62657 70.7184 15.699C70.7184 16.1214 70.6964 16.5387 70.6609 16.9521C68.2958 11.2396 62.6376 7.20555 56.0422 7.20555C54.7036 7.20555 53.4047 7.37415 52.163 7.68706C51.8848 6.56591 51.7342 5.3957 51.7342 4.1912C51.7342 3.32152 51.8133 2.47042 51.9616 1.64313C53.2445 1.28021 54.5975 1.08208 55.9981 1.08208ZM66.4559 18.81C59.9315 18.81 54.3884 14.5726 52.4622 8.72439C53.6086 8.43862 54.8072 8.28431 56.0422 8.28431C62.5647 8.28431 68.1035 12.5213 70.0306 18.367C68.8853 18.6538 67.6895 18.81 66.4559 18.81ZM71.8067 15.699C71.8067 12.466 70.8211 9.4621 69.1342 6.96503C66.2972 2.7657 61.4731 0.00140381 55.9981 0.00140381C50.5231 0.00140381 45.699 2.7657 42.862 6.96503C41.1747 9.4621 40.1895 12.466 40.1895 15.699C40.1895 24.3686 47.2674 31.397 55.9981 31.397C64.7287 31.397 71.8067 24.3686 71.8067 15.699Z" fill="#182020"></path>
    <path d="M104.846 58.7649H102.904V50.591L95.7518 39.792H98.1806L103.875 48.7421L109.569 39.792H111.998L104.846 50.591V58.7649Z" fill="#182020"></path>
    <path d="M1.94272 58.7649H-0.000732422V39.792H11.5233V41.5599H1.94272V48.0187H10.8485V49.7876H1.94272V58.7649Z" fill="#182020"></path>
    <path d="M19.998 52.0089H28.2817L24.1535 42.041L19.998 52.0089ZM17.1648 58.7606H14.8986L23.2086 39.7906H25.0979L33.4084 58.7606H31.1416L29.037 53.7768H19.2694L17.1648 58.7606Z" fill="#182020"></path>
    <path d="M44.6053 55.8708H44.6595L50.9205 39.7917H53.0256L45.577 58.7651H43.6339L36.3743 39.7917H38.5336L44.6053 55.8708Z" fill="#182020"></path>
    <path d="M74.0615 49.2808C74.0615 48.193 73.8817 47.1538 73.5225 46.1641C73.1632 45.1744 72.6471 44.3052 71.9732 43.556C71.3003 42.8073 70.4787 42.21 69.5089 41.7643C68.5386 41.3189 67.4436 41.0955 66.2225 41.0955C65.0009 41.0955 63.9058 41.3189 62.936 41.7643C61.9662 42.21 61.1447 42.8073 60.4712 43.556C59.7979 44.3052 59.2818 45.1744 58.9225 46.1641C58.5632 47.1538 58.3834 48.193 58.3834 49.2808C58.3834 50.3686 58.5632 51.4074 58.9225 52.3971C59.2818 53.3868 59.7979 54.256 60.4712 55.0052C61.1447 55.7539 61.9662 56.3521 62.936 56.7969C63.9058 57.2432 65.0009 57.4656 66.2225 57.4656C67.4436 57.4656 68.5386 57.2432 69.5089 56.7969C70.4787 56.3521 71.3003 55.7539 71.9732 55.0052C72.6471 54.256 73.1632 53.3868 73.5225 52.3971C73.8817 51.4074 74.0615 50.3686 74.0615 49.2808ZM76.1628 49.2808C76.1628 50.7253 75.9105 52.0536 75.4083 53.2663C74.9057 54.4793 74.2097 55.5267 73.3205 56.4092C72.4323 57.2922 71.3809 57.9833 70.1689 58.4825C68.9564 58.9815 67.6407 59.2316 66.2225 59.2316C64.8033 59.2316 63.4881 58.9815 62.2766 58.4825C61.0635 57.9833 60.0136 57.2922 59.1244 56.4092C58.2352 55.5267 57.5393 54.4793 57.0366 53.2663C56.534 52.0536 56.2826 50.7253 56.2826 49.2808C56.2826 47.8363 56.534 46.5084 57.0366 45.2949C57.5393 44.0823 58.2352 43.0349 59.1244 42.152C60.0136 41.2694 61.0635 40.5788 62.2766 40.0787C63.4881 39.5801 64.8033 39.3295 66.2225 39.3295C67.6407 39.3295 68.9564 39.5801 70.1689 40.0787C71.3809 40.5788 72.4323 41.2694 73.3205 42.152C74.2097 43.0349 74.9057 44.0823 75.4083 45.2949C75.9105 46.5084 76.1628 47.8363 76.1628 49.2808Z" fill="#182020"></path>
    <path d="M81.7264 48.1792H85.1801C86.0444 48.1792 86.7773 48.0901 87.3797 47.9115C87.9826 47.733 88.4637 47.4962 88.8239 47.2014C89.1836 46.9062 89.445 46.558 89.6062 46.156C89.7682 45.7545 89.8493 45.3211 89.8493 44.8562C89.8493 44.4099 89.7682 43.9851 89.6062 43.5837C89.445 43.1812 89.1836 42.8287 88.8239 42.5249C88.4637 42.2215 87.9826 41.9853 87.3797 41.8148C86.7773 41.6452 86.0444 41.5599 85.1801 41.5599H81.7264V48.1792ZM81.7264 58.7649H79.7833V39.7916H85.6659C87.61 39.7916 89.1428 40.2116 90.2675 41.0508C91.3919 41.8909 91.9547 43.1593 91.9547 44.8562C91.9547 46.1788 91.5356 47.2909 90.6992 48.1925C89.8628 49.0951 88.6526 49.618 87.0698 49.7604L92.5743 58.7649H90.2004L84.9648 49.9481H81.7264V58.7649Z" fill="#182020"></path>
    <g transform="matrix(1.056618, 0, 0, 1.073249, -2.970572, -6.496356)">
      <path d="M 14.246 66.183 C 14.28 66.333 14.342 66.452 14.434 66.539 C 14.525 66.626 14.651 66.669 14.813 66.669 C 14.945 66.669 15.052 66.643 15.135 66.591 C 15.218 66.54 15.282 66.473 15.327 66.391 C 15.372 66.31 15.404 66.216 15.421 66.11 C 15.438 66.005 15.446 65.898 15.446 65.788 L 15.446 63.364 L 15.809 63.364 L 15.809 65.938 C 15.809 66.058 15.793 66.18 15.761 66.306 C 15.729 66.431 15.674 66.545 15.595 66.646 C 15.516 66.748 15.413 66.832 15.285 66.899 C 15.157 66.966 14.997 66.999 14.806 66.999 C 14.56 66.999 14.356 66.937 14.191 66.812 C 14.026 66.686 13.924 66.501 13.883 66.258 L 14.246 66.183 Z" fill="#182020"></path>
      <path d="M 18.642 66.58 L 20.553 66.58 L 20.553 66.91 L 18.279 66.91 L 18.279 63.365 L 20.493 63.365 L 20.493 63.696 L 18.642 63.696 L 18.642 64.902 L 20.372 64.902 L 20.372 65.233 L 18.642 65.233 L 18.642 66.58 Z" fill="#182020"></path>
      <path d="M 23.67 66.399 L 23.68 66.399 L 24.577 63.365 L 25.011 63.365 L 25.908 66.399 L 25.918 66.399 L 26.766 63.365 L 27.169 63.365 L 26.115 66.91 L 25.691 66.91 L 24.794 63.876 L 24.784 63.876 L 23.886 66.91 L 23.463 66.91 L 22.409 63.365 L 22.812 63.365 L 23.67 66.399 Z" fill="#182020"></path>
      <path d="M 29.639 66.58 L 31.55 66.58 L 31.55 66.91 L 29.276 66.91 L 29.276 63.365 L 31.489 63.365 L 31.489 63.696 L 29.639 63.696 L 29.639 64.902 L 31.368 64.902 L 31.368 65.233 L 29.639 65.233 L 29.639 66.58 Z" fill="#182020"></path>
      <path d="M 34.195 66.58 L 35.859 66.58 L 35.859 66.91 L 33.832 66.91 L 33.832 63.365 L 34.195 63.365 L 34.195 66.58 Z" fill="#182020"></path>
      <path d="M 38.325 64.932 L 38.97 64.932 C 39.132 64.932 39.268 64.915 39.382 64.882 C 39.494 64.848 39.584 64.804 39.651 64.749 C 39.718 64.694 39.767 64.629 39.797 64.554 C 39.827 64.479 39.843 64.398 39.843 64.311 C 39.843 64.228 39.827 64.148 39.797 64.073 C 39.767 63.998 39.718 63.932 39.651 63.875 C 39.584 63.819 39.494 63.775 39.382 63.743 C 39.268 63.711 39.132 63.695 38.97 63.695 L 38.325 63.695 L 38.325 64.932 Z M 38.325 66.91 L 37.962 66.91 L 37.962 63.365 L 39.061 63.365 C 39.424 63.365 39.711 63.443 39.921 63.6 C 40.131 63.757 40.236 63.994 40.236 64.311 C 40.236 64.558 40.158 64.766 40.002 64.934 C 39.845 65.103 39.619 65.2 39.324 65.227 L 40.352 66.91 L 39.908 66.91 L 38.93 65.262 L 38.325 65.262 L 38.325 66.91 Z" fill="#182020"></path>
      <path d="M 43.739 66.91 L 43.376 66.91 L 43.376 65.382 L 42.04 63.365 L 42.493 63.365 L 43.557 65.038 L 44.621 63.365 L 45.075 63.365 L 43.739 65.382 L 43.739 66.91 Z" fill="#182020"></path>
      <path d="M 49.032 66.399 L 49.042 66.399 L 49.939 63.365 L 50.373 63.365 L 51.27 66.399 L 51.28 66.399 L 52.128 63.365 L 52.531 63.365 L 51.478 66.91 L 51.054 66.91 L 50.156 63.876 L 50.146 63.876 L 49.249 66.91 L 48.825 66.91 L 47.771 63.365 L 48.175 63.365 L 49.032 66.399 Z" fill="#182020"></path>
      <path d="M 54.994 66.91 L 54.631 66.91 L 54.631 63.365 L 54.994 63.365 L 54.994 66.91 Z" fill="#182020"></path>
      <path d="M 58.682 66.91 L 58.319 66.91 L 58.319 63.696 L 57.123 63.696 L 57.123 63.365 L 59.876 63.365 L 59.876 63.696 L 58.682 63.696 L 58.682 66.91 Z" fill="#182020"></path>
      <path d="M 61.952 63.364 L 62.316 63.364 L 62.316 64.901 L 64.262 64.901 L 64.262 63.364 L 64.625 63.364 L 64.625 66.909 L 64.262 66.909 L 64.262 65.232 L 62.316 65.232 L 62.316 66.909 L 61.952 66.909 L 61.952 63.364 Z" fill="#182020"></path>
      <path d="M 68.754 64.932 L 69.339 64.932 C 69.5 64.932 69.637 64.915 69.75 64.882 C 69.863 64.848 69.953 64.804 70.02 64.749 C 70.087 64.694 70.136 64.629 70.166 64.554 C 70.196 64.479 70.211 64.398 70.211 64.311 C 70.211 64.228 70.196 64.148 70.166 64.073 C 70.136 63.998 70.087 63.932 70.02 63.875 C 69.953 63.819 69.863 63.775 69.75 63.743 C 69.637 63.711 69.5 63.695 69.339 63.695 L 68.754 63.695 L 68.754 64.932 Z M 68.391 63.365 L 69.43 63.365 C 69.793 63.365 70.08 63.443 70.289 63.6 C 70.499 63.757 70.604 63.994 70.604 64.311 C 70.604 64.628 70.499 64.866 70.289 65.025 C 70.08 65.183 69.793 65.262 69.43 65.262 L 68.754 65.262 L 68.754 66.91 L 68.391 66.91 L 68.391 63.365 Z" fill="#182020"></path>
      <path d="M 73.098 65.648 L 74.646 65.648 L 73.874 63.785 L 73.098 65.648 Z M 72.568 66.909 L 72.145 66.909 L 73.698 63.365 L 74.051 63.365 L 75.604 66.909 L 75.18 66.909 L 74.787 65.978 L 72.962 65.978 L 72.568 66.909 Z" fill="#182020"></path>
      <path d="M 79.38 63.952 C 79.222 63.721 78.991 63.606 78.689 63.606 C 78.595 63.606 78.503 63.618 78.411 63.643 C 78.321 63.669 78.24 63.707 78.167 63.759 C 78.095 63.811 78.037 63.877 77.993 63.959 C 77.95 64.041 77.928 64.137 77.928 64.247 C 77.928 64.407 77.973 64.532 78.064 64.62 C 78.155 64.708 78.268 64.781 78.402 64.838 C 78.536 64.895 78.683 64.945 78.843 64.991 C 79.003 65.036 79.15 65.096 79.284 65.171 C 79.419 65.246 79.532 65.345 79.622 65.469 C 79.713 65.592 79.758 65.76 79.758 65.975 C 79.758 66.134 79.724 66.279 79.655 66.408 C 79.586 66.536 79.495 66.643 79.383 66.73 C 79.27 66.817 79.144 66.884 79.004 66.931 C 78.865 66.978 78.725 67.001 78.583 67.001 C 78.365 67.001 78.157 66.96 77.961 66.878 C 77.764 66.796 77.597 66.662 77.459 66.475 L 77.791 66.24 C 77.869 66.37 77.976 66.474 78.113 66.553 C 78.251 66.631 78.413 66.67 78.601 66.67 C 78.691 66.67 78.782 66.656 78.872 66.628 C 78.963 66.6 79.044 66.558 79.116 66.503 C 79.189 66.447 79.248 66.38 79.295 66.3 C 79.342 66.22 79.365 66.128 79.365 66.024 C 79.365 65.901 79.339 65.798 79.287 65.717 C 79.235 65.635 79.166 65.567 79.08 65.511 C 78.994 65.456 78.897 65.41 78.788 65.374 C 78.678 65.337 78.566 65.3 78.45 65.263 C 78.333 65.227 78.221 65.185 78.112 65.138 C 78.003 65.092 77.905 65.032 77.819 64.96 C 77.734 64.889 77.665 64.799 77.612 64.69 C 77.561 64.582 77.535 64.446 77.535 64.282 C 77.535 64.112 77.568 63.963 77.633 63.836 C 77.698 63.709 77.786 63.604 77.895 63.521 C 78.004 63.437 78.128 63.376 78.266 63.336 C 78.403 63.296 78.545 63.276 78.689 63.276 C 78.891 63.276 79.074 63.307 79.239 63.371 C 79.403 63.434 79.557 63.546 79.698 63.706 L 79.38 63.952 Z" fill="#182020"></path>
      <path d="M 83.785 63.952 C 83.627 63.721 83.397 63.606 83.094 63.606 C 83 63.606 82.908 63.618 82.817 63.643 C 82.726 63.669 82.645 63.707 82.572 63.759 C 82.5 63.811 82.442 63.877 82.398 63.959 C 82.355 64.041 82.333 64.137 82.333 64.247 C 82.333 64.407 82.378 64.532 82.469 64.62 C 82.56 64.708 82.673 64.781 82.807 64.838 C 82.941 64.895 83.088 64.945 83.248 64.991 C 83.408 65.036 83.555 65.096 83.69 65.171 C 83.824 65.246 83.936 65.345 84.027 65.469 C 84.118 65.592 84.163 65.76 84.163 65.975 C 84.163 66.134 84.129 66.279 84.06 66.408 C 83.991 66.536 83.9 66.643 83.788 66.73 C 83.675 66.817 83.549 66.884 83.409 66.931 C 83.27 66.978 83.13 67.001 82.988 67.001 C 82.77 67.001 82.562 66.96 82.366 66.878 C 82.169 66.796 82.002 66.662 81.864 66.475 L 82.196 66.24 C 82.274 66.37 82.381 66.474 82.518 66.553 C 82.656 66.631 82.818 66.67 83.006 66.67 C 83.096 66.67 83.187 66.656 83.277 66.628 C 83.368 66.6 83.449 66.558 83.521 66.503 C 83.594 66.447 83.653 66.38 83.7 66.3 C 83.747 66.22 83.77 66.128 83.77 66.024 C 83.77 65.901 83.744 65.798 83.692 65.717 C 83.64 65.635 83.571 65.567 83.485 65.511 C 83.399 65.456 83.302 65.41 83.193 65.374 C 83.083 65.337 82.971 65.3 82.855 65.263 C 82.738 65.227 82.626 65.185 82.517 65.138 C 82.408 65.092 82.311 65.032 82.224 64.96 C 82.139 64.889 82.07 64.799 82.018 64.69 C 81.966 64.582 81.939 64.446 81.939 64.282 C 81.939 64.112 81.973 63.963 82.038 63.836 C 82.103 63.709 82.191 63.604 82.3 63.521 C 82.409 63.437 82.533 63.376 82.671 63.336 C 82.808 63.296 82.95 63.276 83.094 63.276 C 83.296 63.276 83.479 63.307 83.644 63.371 C 83.808 63.434 83.962 63.546 84.103 63.706 L 83.785 63.952 Z" fill="#182020"></path>
      <path d="M 86.865 66.91 L 86.502 66.91 L 86.502 63.365 L 86.865 63.365 L 86.865 66.91 Z" fill="#182020"></path>
      <path d="M 92.53 65.137 C 92.53 64.934 92.497 64.739 92.43 64.554 C 92.363 64.368 92.265 64.206 92.14 64.065 C 92.013 63.925 91.86 63.813 91.678 63.73 C 91.498 63.646 91.292 63.605 91.063 63.605 C 90.835 63.605 90.63 63.646 90.448 63.73 C 90.267 63.813 90.113 63.925 89.987 64.065 C 89.861 64.206 89.764 64.368 89.697 64.554 C 89.63 64.739 89.596 64.934 89.596 65.137 C 89.596 65.34 89.63 65.535 89.697 65.72 C 89.764 65.906 89.861 66.069 89.987 66.209 C 90.113 66.349 90.267 66.461 90.448 66.544 C 90.63 66.627 90.835 66.669 91.063 66.669 C 91.292 66.669 91.498 66.627 91.678 66.544 C 91.86 66.461 92.013 66.349 92.14 66.209 C 92.265 66.069 92.363 65.906 92.43 65.72 C 92.497 65.535 92.53 65.34 92.53 65.137 Z M 92.924 65.137 C 92.924 65.407 92.877 65.656 92.782 65.883 C 92.689 66.11 92.558 66.306 92.392 66.471 C 92.226 66.636 92.029 66.766 91.802 66.859 C 91.575 66.953 91.329 66.999 91.063 66.999 C 90.798 66.999 90.551 66.953 90.324 66.859 C 90.098 66.766 89.901 66.636 89.735 66.471 C 89.568 66.306 89.438 66.11 89.344 65.883 C 89.25 65.656 89.203 65.407 89.203 65.137 C 89.203 64.867 89.25 64.618 89.344 64.391 C 89.438 64.164 89.568 63.968 89.735 63.803 C 89.901 63.638 90.098 63.508 90.324 63.415 C 90.551 63.321 90.798 63.274 91.063 63.274 C 91.329 63.274 91.575 63.321 91.802 63.415 C 92.029 63.508 92.226 63.638 92.392 63.803 C 92.558 63.968 92.689 64.164 92.782 64.391 C 92.877 64.618 92.924 64.867 92.924 65.137 Z" fill="#182020"></path>
      <path d="M 97.748 66.369 L 97.758 66.369 L 97.758 63.365 L 98.114 63.365 L 98.114 66.91 L 97.669 66.91 L 95.586 63.875 L 95.576 63.875 L 95.576 66.91 L 95.22 66.91 L 95.22 63.365 L 95.664 63.365 L 97.748 66.369 Z" fill="#182020"></path>
    </g>
  </g>
  <defs>
    <clipPath id="clip0_246_2190">
      <rect width="112" height="67" fill="white"></rect>
    </clipPath>
  </defs>
</svg>