<svg width="162" height="57" viewBox="0 0 162 57" fill="none" xmlns="http://www.w3.org/2000/svg">
<path d="M1.78093 40.2376C3.16479 34.6421 7.36603 30.1475 12.7858 28.3485C15.1291 35.5688 21.9168 40.8045 29.9075 40.8045C31.3897 40.8045 32.8265 40.6167 34.2038 40.2753C32.3127 47.4601 25.7783 52.7608 18 52.7608C10.2075 52.7608 3.65844 47.4422 1.78093 40.2376ZM1.23916 35.9998C1.23916 28.8264 5.74738 22.7082 12.084 20.3161C11.9698 21.1298 11.9081 21.9594 11.9081 22.8043C11.9081 24.3056 12.0954 25.7632 12.4433 27.158C7.36603 28.8291 3.28111 32.7039 1.32112 37.6463C1.26816 37.1045 1.23916 36.5557 1.23916 35.9998ZM18 19.2392C27.2567 19.2392 34.7609 26.7435 34.7609 35.9998C34.7609 36.4842 34.7358 36.9626 34.6953 37.4366C32.0024 30.8864 25.5599 26.2607 18.0503 26.2607C16.5261 26.2607 15.0472 26.454 13.6333 26.8128C13.3165 25.5272 13.1451 24.1854 13.1451 22.8043C13.1451 21.807 13.2352 20.8311 13.4039 19.8825C14.8647 19.4663 16.4053 19.2392 18 19.2392ZM29.9075 39.567C22.4787 39.567 16.1672 34.7081 13.974 28.0023C15.2793 27.6746 16.644 27.4977 18.0503 27.4977C25.4769 27.4977 31.7834 32.356 33.9777 39.0591C32.6736 39.3879 31.3121 39.567 29.9075 39.567ZM36 35.9998C36 32.2926 34.8778 28.8482 32.9571 25.9849C29.7268 21.1697 24.2339 18 18 18C11.7661 18 6.27332 21.1697 3.04302 25.9849C1.12181 28.8482 0 32.2926 0 35.9998C0 45.9408 8.05909 54 18 54C27.9409 54 36 45.9408 36 35.9998Z" fill="#303936"/>
<path d="M154.846 44.7649H152.904V36.591L145.752 25.792H148.181L153.875 34.7421L159.569 25.792H161.998L154.846 36.591V44.7649Z" fill="#182020"/>
<path d="M51.9427 44.7649H49.9993V25.792H61.5233V27.5599H51.9427V34.0187H60.8485V35.7876H51.9427V44.7649Z" fill="#182020"/>
<path d="M69.998 38.0089H78.2817L74.1535 28.0409L69.998 38.0089ZM67.1648 44.7606H64.8986L73.2086 25.7905H75.0979L83.4084 44.7606H81.1416L79.037 39.7768H69.2694L67.1648 44.7606Z" fill="#182020"/>
<path d="M94.6053 41.8708H94.6595L100.921 25.7917H103.026L95.577 44.7652H93.6339L86.3743 25.7917H88.5336L94.6053 41.8708Z" fill="#182020"/>
<path d="M124.062 35.2809C124.062 34.1931 123.882 33.1538 123.522 32.1641C123.163 31.1744 122.647 30.3052 121.973 29.556C121.3 28.8073 120.479 28.21 119.509 27.7643C118.539 27.3189 117.444 27.0956 116.223 27.0956C115.001 27.0956 113.906 27.3189 112.936 27.7643C111.966 28.21 111.145 28.8073 110.471 29.556C109.798 30.3052 109.282 31.1744 108.923 32.1641C108.563 33.1538 108.383 34.1931 108.383 35.2809C108.383 36.3687 108.563 37.4074 108.923 38.3971C109.282 39.3868 109.798 40.256 110.471 41.0052C111.145 41.7539 111.966 42.3521 112.936 42.7969C113.906 43.2432 115.001 43.4657 116.223 43.4657C117.444 43.4657 118.539 43.2432 119.509 42.7969C120.479 42.3521 121.3 41.7539 121.973 41.0052C122.647 40.256 123.163 39.3868 123.522 38.3971C123.882 37.4074 124.062 36.3687 124.062 35.2809ZM126.163 35.2809C126.163 36.7254 125.911 38.0537 125.408 39.2663C124.906 40.4794 124.21 41.5267 123.321 42.4092C122.432 43.2923 121.381 43.9834 120.169 44.4825C118.956 44.9816 117.641 45.2317 116.223 45.2317C114.803 45.2317 113.488 44.9816 112.277 44.4825C111.064 43.9834 110.014 43.2923 109.124 42.4092C108.235 41.5267 107.539 40.4794 107.037 39.2663C106.534 38.0537 106.283 36.7254 106.283 35.2809C106.283 33.8363 106.534 32.5085 107.037 31.2949C107.539 30.0823 108.235 29.035 109.124 28.152C110.014 27.2694 111.064 26.5789 112.277 26.0787C113.488 25.5801 114.803 25.3296 116.223 25.3296C117.641 25.3296 118.956 25.5801 120.169 26.0787C121.381 26.5789 122.432 27.2694 123.321 28.152C124.21 29.035 124.906 30.0823 125.408 31.2949C125.911 32.5085 126.163 33.8363 126.163 35.2809Z" fill="#182020"/>
<path d="M131.726 34.1792H135.18C136.044 34.1792 136.777 34.0901 137.38 33.9114C137.983 33.7329 138.464 33.4961 138.824 33.2013C139.184 32.9061 139.445 32.558 139.606 32.156C139.768 31.7544 139.849 31.321 139.849 30.8562C139.849 30.4099 139.768 29.9851 139.606 29.5836C139.445 29.1812 139.184 28.8287 138.824 28.5248C138.464 28.2214 137.983 27.9852 137.38 27.8147C136.777 27.6451 136.044 27.5599 135.18 27.5599H131.726V34.1792ZM131.726 44.7648H129.783V25.7915H135.666C137.61 25.7915 139.143 26.2115 140.268 27.0507C141.392 27.8909 141.955 29.1593 141.955 30.8562C141.955 32.1788 141.536 33.2909 140.699 34.1925C139.863 35.095 138.653 35.618 137.07 35.7604L142.574 44.7648H140.2L134.965 35.9481H131.726V44.7648Z" fill="#182020"/>
<path d="M64.2462 52.1833C64.2798 52.3334 64.3422 52.4519 64.4338 52.5391C64.5249 52.6257 64.651 52.6686 64.8131 52.6686C64.945 52.6686 65.052 52.6429 65.135 52.5909C65.2175 52.5395 65.2817 52.4729 65.3273 52.3909C65.3724 52.3095 65.404 52.2157 65.4208 52.1104C65.4376 52.0051 65.4463 51.8975 65.4463 51.7875V49.3643H65.8093V51.938C65.8093 52.058 65.793 52.1804 65.7613 52.3057C65.7293 52.4314 65.6741 52.5448 65.595 52.6463C65.5158 52.7481 65.4127 52.8324 65.2851 52.8991C65.1571 52.9658 64.9973 52.9992 64.8059 52.9992C64.5604 52.9992 64.3556 52.9367 64.1905 52.8115C64.0261 52.6862 63.9235 52.5014 63.8832 52.258L64.2462 52.1833Z" fill="#182020"/>
<path d="M68.6423 52.5796H70.5531V52.9102H68.2792V49.3652H70.4927V49.6958H68.6423V50.9022H70.3719V51.2327H68.6423V52.5796Z" fill="#182020"/>
<path d="M73.6695 52.3993H73.6796L74.577 49.365H75.0105L75.908 52.3993H75.918L76.7655 49.365H77.1689L76.1146 52.9099H75.6912L74.7938 49.8756H74.7837L73.8863 52.9099H73.4628L72.4091 49.365H72.812L73.6695 52.3993Z" fill="#182020"/>
<path d="M79.6389 52.5796H81.5497V52.9102H79.2758V49.3652H81.4893V49.6958H79.6389V50.9022H81.3679V51.2327H79.6389V52.5796Z" fill="#182020"/>
<path d="M84.1949 52.5796H85.8587V52.9102H83.8319V49.3652H84.1949V52.5796Z" fill="#182020"/>
<path d="M88.3249 50.9316H88.97C89.1317 50.9316 89.2683 50.9154 89.3815 50.8821C89.4938 50.8483 89.5839 50.804 89.6511 50.7492C89.7182 50.694 89.7672 50.6288 89.7973 50.554C89.827 50.4788 89.8429 50.3977 89.8429 50.3106C89.8429 50.2277 89.827 50.1482 89.7973 50.0734C89.7672 49.9982 89.7182 49.932 89.6511 49.8753C89.5839 49.8186 89.4938 49.7748 89.3815 49.7428C89.2683 49.711 89.1317 49.6952 88.97 49.6952H88.3249V50.9316ZM88.3249 52.9096H87.9618V49.3647H89.0611C89.4242 49.3647 89.7105 49.4433 89.9211 49.6C90.1307 49.7571 90.2358 49.9938 90.2358 50.3106C90.2358 50.5583 90.158 50.766 90.0016 50.934C89.8448 51.1031 89.6189 51.2003 89.3235 51.227L90.3518 52.9096H89.9082L88.9297 51.2622H88.3249V52.9096Z" fill="#182020"/>
<path d="M93.7387 52.9098H93.3756V51.3824L92.0398 49.365H92.493L93.5573 51.0376L94.6211 49.365H95.0749L93.7387 51.3824V52.9098Z" fill="#182020"/>
<path d="M99.0318 52.3993H99.0419L99.9393 49.365H100.373L101.27 52.3993H101.28L102.128 49.365H102.531L101.477 52.9099H101.054L100.156 49.8756H100.146L99.2486 52.9099H98.8252L97.7714 49.365H98.1747L99.0318 52.3993Z" fill="#182020"/>
<path d="M104.994 52.9099H104.631V49.365H104.994V52.9099Z" fill="#182020"/>
<path d="M108.682 52.9098H108.319V49.6955H107.123V49.365H109.876V49.6955H108.682V52.9098Z" fill="#182020"/>
<path d="M111.952 49.3643H112.316V50.9012H114.261V49.3643H114.625V52.9091H114.261V51.2317H112.316V52.9091H111.952V49.3643Z" fill="#182020"/>
<path d="M118.754 50.9316H119.339C119.5 50.9316 119.637 50.9154 119.75 50.8821C119.863 50.8483 119.953 50.804 120.02 50.7492C120.087 50.694 120.136 50.6288 120.166 50.554C120.196 50.4788 120.211 50.3977 120.211 50.3106C120.211 50.2277 120.196 50.1482 120.166 50.0734C120.136 49.9982 120.087 49.932 120.02 49.8753C119.953 49.8186 119.863 49.7748 119.75 49.7428C119.637 49.711 119.5 49.6952 119.339 49.6952H118.754V50.9316ZM118.391 49.3647H119.43C119.793 49.3647 120.08 49.4433 120.289 49.6C120.499 49.7571 120.604 49.9938 120.604 50.3106C120.604 50.6282 120.499 50.8664 120.289 51.0245C120.08 51.1832 119.793 51.2622 119.43 51.2622H118.754V52.9096H118.391V49.3647Z" fill="#182020"/>
<path d="M123.098 51.6478H124.646L123.874 49.785L123.098 51.6478ZM122.568 52.9094H122.145L123.698 49.365H124.051L125.604 52.9094H125.18L124.787 51.9783H122.962L122.568 52.9094Z" fill="#182020"/>
<path d="M129.38 49.9514C129.222 49.7214 128.991 49.6061 128.689 49.6061C128.595 49.6061 128.503 49.6181 128.412 49.6433C128.321 49.6686 128.24 49.7072 128.167 49.759C128.095 49.8109 128.037 49.8772 127.993 49.9586C127.95 50.0405 127.928 50.1368 127.928 50.2468C127.928 50.4068 127.973 50.5315 128.064 50.6197C128.155 50.7083 128.268 50.7807 128.402 50.8378C128.536 50.8945 128.683 50.9449 128.843 50.9907C129.003 51.0355 129.15 51.0955 129.284 51.1707C129.419 51.246 129.532 51.345 129.622 51.4689C129.713 51.5922 129.758 51.7603 129.758 51.9747C129.758 52.1342 129.724 52.2785 129.655 52.4076C129.586 52.5362 129.495 52.6434 129.383 52.73C129.27 52.8172 129.144 52.8839 129.004 52.9306C128.865 52.9778 128.725 53.0006 128.583 53.0006C128.365 53.0006 128.157 52.9596 127.961 52.8782C127.764 52.7962 127.597 52.6619 127.459 52.4748L127.791 52.2395C127.869 52.37 127.976 52.4743 128.113 52.5524C128.251 52.631 128.413 52.67 128.601 52.67C128.691 52.67 128.782 52.6558 128.872 52.6276C128.963 52.5996 129.044 52.5576 129.116 52.5024C129.189 52.4471 129.248 52.38 129.295 52.2995C129.342 52.2195 129.365 52.1276 129.365 52.0242C129.365 51.9004 129.339 51.798 129.287 51.7165C129.235 51.6346 129.166 51.5665 129.08 51.5108C128.994 51.456 128.897 51.4103 128.788 51.3736C128.678 51.337 128.566 51.3003 128.45 51.2631C128.333 51.2264 128.221 51.1845 128.112 51.1383C128.003 51.0917 127.906 51.0321 127.819 50.9602C127.734 50.8888 127.665 50.7987 127.613 50.6897C127.561 50.5816 127.535 50.4458 127.535 50.282C127.535 50.1115 127.567 49.9634 127.633 49.8362C127.698 49.7091 127.786 49.6042 127.895 49.5209C128.004 49.4371 128.128 49.3756 128.266 49.3361C128.403 49.2956 128.545 49.2756 128.689 49.2756C128.891 49.2756 129.074 49.3071 129.239 49.3709C129.403 49.4342 129.556 49.5462 129.698 49.7062L129.38 49.9514Z" fill="#182020"/>
<path d="M133.785 49.9514C133.627 49.7214 133.397 49.6061 133.094 49.6061C133 49.6061 132.908 49.6181 132.817 49.6433C132.726 49.6686 132.645 49.7072 132.573 49.759C132.5 49.8109 132.442 49.8772 132.398 49.9586C132.355 50.0405 132.333 50.1368 132.333 50.2468C132.333 50.4068 132.378 50.5315 132.469 50.6197C132.56 50.7083 132.673 50.7807 132.807 50.8378C132.941 50.8945 133.089 50.9449 133.248 50.9907C133.408 51.0355 133.555 51.0955 133.69 51.1707C133.824 51.246 133.936 51.345 134.027 51.4689C134.118 51.5922 134.163 51.7603 134.163 51.9747C134.163 52.1342 134.129 52.2785 134.06 52.4076C133.991 52.5362 133.9 52.6434 133.788 52.73C133.675 52.8172 133.549 52.8839 133.409 52.9306C133.27 52.9778 133.13 53.0006 132.988 53.0006C132.77 53.0006 132.562 52.9596 132.366 52.8782C132.169 52.7962 132.002 52.6619 131.864 52.4748L132.196 52.2395C132.274 52.37 132.381 52.4743 132.518 52.5524C132.656 52.631 132.818 52.67 133.006 52.67C133.096 52.67 133.187 52.6558 133.277 52.6276C133.368 52.5996 133.449 52.5576 133.521 52.5024C133.594 52.4471 133.653 52.38 133.7 52.2995C133.747 52.2195 133.77 52.1276 133.77 52.0242C133.77 51.9004 133.744 51.798 133.692 51.7165C133.64 51.6346 133.571 51.5665 133.485 51.5108C133.399 51.456 133.302 51.4103 133.193 51.3736C133.083 51.337 132.971 51.3003 132.855 51.2631C132.738 51.2264 132.626 51.1845 132.517 51.1383C132.408 51.0917 132.311 51.0321 132.224 50.9602C132.139 50.8888 132.07 50.7987 132.018 50.6897C131.966 50.5816 131.939 50.4458 131.939 50.282C131.939 50.1115 131.973 49.9634 132.038 49.8362C132.103 49.7091 132.191 49.6042 132.3 49.5209C132.409 49.4371 132.533 49.3756 132.671 49.3361C132.808 49.2956 132.95 49.2756 133.094 49.2756C133.296 49.2756 133.479 49.3071 133.644 49.3709C133.809 49.4342 133.962 49.5462 134.103 49.7062L133.785 49.9514Z" fill="#182020"/>
<path d="M136.865 52.9099H136.502V49.365H136.865V52.9099Z" fill="#182020"/>
<path d="M142.53 51.1371C142.53 50.9337 142.497 50.7389 142.43 50.5537C142.363 50.3684 142.265 50.2055 142.14 50.0655C142.013 49.9254 141.86 49.813 141.678 49.7302C141.498 49.6464 141.292 49.6049 141.063 49.6049C140.835 49.6049 140.63 49.6464 140.448 49.7302C140.267 49.813 140.113 49.9254 139.986 50.0655C139.861 50.2055 139.764 50.3684 139.697 50.5537C139.63 50.7389 139.596 50.9337 139.596 51.1371C139.596 51.3405 139.63 51.5348 139.697 51.72C139.764 51.9058 139.861 52.0687 139.986 52.2087C140.113 52.3487 140.267 52.4606 140.448 52.544C140.63 52.6273 140.835 52.6688 141.063 52.6688C141.292 52.6688 141.498 52.6273 141.678 52.544C141.86 52.4606 142.013 52.3487 142.14 52.2087C142.265 52.0687 142.363 51.9058 142.43 51.72C142.497 51.5348 142.53 51.3405 142.53 51.1371ZM142.924 51.1371C142.924 51.4071 142.877 51.6557 142.782 51.8829C142.689 52.1101 142.558 52.3059 142.392 52.4711C142.226 52.6364 142.029 52.7659 141.802 52.8593C141.575 52.9532 141.329 52.9993 141.063 52.9993C140.798 52.9993 140.551 52.9532 140.324 52.8593C140.098 52.7659 139.901 52.6364 139.735 52.4711C139.568 52.3059 139.438 52.1101 139.344 51.8829C139.25 51.6557 139.203 51.4071 139.203 51.1371C139.203 50.8666 139.25 50.6184 139.344 50.3912C139.438 50.1641 139.568 49.9679 139.735 49.8025C139.901 49.6378 140.098 49.5077 140.324 49.4148C140.551 49.321 140.798 49.2744 141.063 49.2744C141.329 49.2744 141.575 49.321 141.802 49.4148C142.029 49.5077 142.226 49.6378 142.392 49.8025C142.558 49.9679 142.689 50.1641 142.782 50.3912C142.877 50.6184 142.924 50.8666 142.924 51.1371Z" fill="#182020"/>
<path d="M147.748 52.3688H147.758V49.3645H148.114V52.9094H147.669L145.586 49.8751H145.576V52.9094H145.22V49.3645H145.664L147.748 52.3688Z" fill="#182020"/>
</svg>
