<svg width="220" height="80" viewBox="0 0 162 57" fill="none" xmlns="http://www.w3.org/2000/svg">
  <defs></defs>
  <path d="M1.78093 40.2376C3.16479 34.6421 7.36603 30.1475 12.7858 28.3485C15.1291 35.5688 21.9168 40.8045 29.9075 40.8045C31.3897 40.8045 32.8265 40.6167 34.2038 40.2753C32.3127 47.4601 25.7783 52.7608 18 52.7608C10.2075 52.7608 3.65844 47.4422 1.78093 40.2376ZM1.23916 35.9998C1.23916 28.8264 5.74738 22.7082 12.084 20.3161C11.9698 21.1298 11.9081 21.9594 11.9081 22.8043C11.9081 24.3056 12.0954 25.7632 12.4433 27.158C7.36603 28.8291 3.28111 32.7039 1.32113 37.6463C1.26816 37.1045 1.23916 36.5557 1.23916 35.9998ZM18 19.2392C27.2567 19.2392 34.7608 26.7435 34.7608 35.9998C34.7608 36.4842 34.7358 36.9626 34.6953 37.4366C32.0024 30.8864 25.5599 26.2607 18.0503 26.2607C16.5261 26.2607 15.0472 26.454 13.6333 26.8128C13.3165 25.5272 13.1451 24.1854 13.1451 22.8043C13.1451 21.807 13.2352 20.8311 13.4039 19.8825C14.8647 19.4663 16.4053 19.2392 18 19.2392ZM29.9075 39.567C22.4787 39.567 16.1672 34.7081 13.974 28.0023C15.2793 27.6746 16.644 27.4977 18.0503 27.4977C25.4769 27.4977 31.7834 32.356 33.9777 39.0591C32.6736 39.3879 31.3121 39.567 29.9075 39.567ZM36 35.9998C36 32.2926 34.8778 28.8482 32.9571 25.9849C29.7268 21.1697 24.2339 18 18 18C11.7661 18 6.27332 21.1697 3.04302 25.9849C1.12181 28.8482 0 32.2926 0 35.9998C0 45.9408 8.05909 54 18 54C27.9409 54 36 45.9408 36 35.9998Z" fill="#303936"></path>
  <g transform="matrix(1, 0, 0, 1, -2.509314, -4.014904)">
    <g>
      <path d="M 154.846 44.765 L 152.904 44.765 L 152.904 36.591 L 145.752 25.792 L 148.181 25.792 L 153.875 34.742 L 159.569 25.792 L 161.998 25.792 L 154.846 36.591 L 154.846 44.765 Z" fill="#182020"></path>
      <path d="M 51.943 44.765 L 49.999 44.765 L 49.999 25.792 L 61.523 25.792 L 61.523 27.56 L 51.943 27.56 L 51.943 34.019 L 60.849 34.019 L 60.849 35.788 L 51.943 35.788 L 51.943 44.765 Z" fill="#182020"></path>
      <path d="M 69.998 38.009 L 78.282 38.009 L 74.153 28.041 L 69.998 38.009 Z M 67.165 44.761 L 64.899 44.761 L 73.209 25.791 L 75.098 25.791 L 83.408 44.761 L 81.142 44.761 L 79.037 39.777 L 69.269 39.777 L 67.165 44.761 Z" fill="#182020"></path>
      <path d="M 94.605 41.871 L 94.66 41.871 L 100.921 25.792 L 103.026 25.792 L 95.577 44.765 L 93.634 44.765 L 86.374 25.792 L 88.534 25.792 L 94.605 41.871 Z" fill="#182020"></path>
      <path d="M 124.062 35.281 C 124.062 34.193 123.882 33.154 123.522 32.164 C 123.163 31.174 122.647 30.305 121.973 29.556 C 121.3 28.807 120.479 28.21 119.509 27.764 C 118.539 27.319 117.444 27.096 116.223 27.096 C 115.001 27.096 113.906 27.319 112.936 27.764 C 111.966 28.21 111.145 28.807 110.471 29.556 C 109.798 30.305 109.282 31.174 108.923 32.164 C 108.563 33.154 108.383 34.193 108.383 35.281 C 108.383 36.369 108.563 37.407 108.923 38.397 C 109.282 39.387 109.798 40.256 110.471 41.005 C 111.145 41.754 111.966 42.352 112.936 42.797 C 113.906 43.243 115.001 43.466 116.223 43.466 C 117.444 43.466 118.539 43.243 119.509 42.797 C 120.479 42.352 121.3 41.754 121.973 41.005 C 122.647 40.256 123.163 39.387 123.522 38.397 C 123.882 37.407 124.062 36.369 124.062 35.281 Z M 126.163 35.281 C 126.163 36.725 125.911 38.054 125.408 39.266 C 124.906 40.479 124.21 41.527 123.321 42.409 C 122.432 43.292 121.381 43.983 120.169 44.483 C 118.956 44.982 117.641 45.232 116.223 45.232 C 114.803 45.232 113.488 44.982 112.277 44.483 C 111.064 43.983 110.014 43.292 109.124 42.409 C 108.235 41.527 107.539 40.479 107.037 39.266 C 106.534 38.054 106.283 36.725 106.283 35.281 C 106.283 33.836 106.534 32.508 107.037 31.295 C 107.539 30.082 108.235 29.035 109.124 28.152 C 110.014 27.269 111.064 26.579 112.277 26.079 C 113.488 25.58 114.803 25.33 116.223 25.33 C 117.641 25.33 118.956 25.58 120.169 26.079 C 121.381 26.579 122.432 27.269 123.321 28.152 C 124.21 29.035 124.906 30.082 125.408 31.295 C 125.911 32.508 126.163 33.836 126.163 35.281 Z" fill="#182020"></path>
      <path d="M 131.726 34.179 L 135.18 34.179 C 136.044 34.179 136.777 34.09 137.38 33.911 C 137.983 33.733 138.464 33.496 138.824 33.201 C 139.184 32.906 139.445 32.558 139.606 32.156 C 139.768 31.754 139.849 31.321 139.849 30.856 C 139.849 30.41 139.768 29.985 139.606 29.584 C 139.445 29.181 139.184 28.829 138.824 28.525 C 138.464 28.221 137.983 27.985 137.38 27.815 C 136.777 27.645 136.044 27.56 135.18 27.56 L 131.726 27.56 L 131.726 34.179 Z M 131.726 44.765 L 129.783 44.765 L 129.783 25.792 L 135.666 25.792 C 137.61 25.792 139.143 26.212 140.268 27.051 C 141.392 27.891 141.955 29.159 141.955 30.856 C 141.955 32.179 141.536 33.291 140.699 34.193 C 139.863 35.095 138.653 35.618 137.07 35.76 L 142.574 44.765 L 140.2 44.765 L 134.965 35.948 L 131.726 35.948 L 131.726 44.765 Z" fill="#182020"></path>
    </g>
    <g transform="matrix(1, 0, 0, 1, -14.554029, -0.627328)">
      <path d="M 64.246 52.183 C 64.28 52.333 64.342 52.452 64.434 52.539 C 64.525 52.626 64.651 52.669 64.813 52.669 C 64.945 52.669 65.052 52.643 65.135 52.591 C 65.218 52.54 65.282 52.473 65.327 52.391 C 65.372 52.31 65.404 52.216 65.421 52.11 C 65.438 52.005 65.446 51.898 65.446 51.788 L 65.446 49.364 L 65.809 49.364 L 65.809 51.938 C 65.809 52.058 65.793 52.18 65.761 52.306 C 65.729 52.431 65.674 52.545 65.595 52.646 C 65.516 52.748 65.413 52.832 65.285 52.899 C 65.157 52.966 64.997 52.999 64.806 52.999 C 64.56 52.999 64.356 52.937 64.191 52.812 C 64.026 52.686 63.924 52.501 63.883 52.258 L 64.246 52.183 Z" fill="#182020"></path>
      <path d="M 68.642 52.58 L 70.553 52.58 L 70.553 52.91 L 68.279 52.91 L 68.279 49.365 L 70.493 49.365 L 70.493 49.696 L 68.642 49.696 L 68.642 50.902 L 70.372 50.902 L 70.372 51.233 L 68.642 51.233 L 68.642 52.58 Z" fill="#182020"></path>
      <path d="M 73.67 52.399 L 73.68 52.399 L 74.577 49.365 L 75.01 49.365 L 75.908 52.399 L 75.918 52.399 L 76.766 49.365 L 77.169 49.365 L 76.115 52.91 L 75.691 52.91 L 74.794 49.876 L 74.784 49.876 L 73.886 52.91 L 73.463 52.91 L 72.409 49.365 L 72.812 49.365 L 73.67 52.399 Z" fill="#182020"></path>
      <path d="M 79.639 52.58 L 81.55 52.58 L 81.55 52.91 L 79.276 52.91 L 79.276 49.365 L 81.489 49.365 L 81.489 49.696 L 79.639 49.696 L 79.639 50.902 L 81.368 50.902 L 81.368 51.233 L 79.639 51.233 L 79.639 52.58 Z" fill="#182020"></path>
      <path d="M 84.195 52.58 L 85.859 52.58 L 85.859 52.91 L 83.832 52.91 L 83.832 49.365 L 84.195 49.365 L 84.195 52.58 Z" fill="#182020"></path>
      <path d="M 88.325 50.932 L 88.97 50.932 C 89.132 50.932 89.268 50.915 89.382 50.882 C 89.494 50.848 89.584 50.804 89.651 50.749 C 89.718 50.694 89.767 50.629 89.797 50.554 C 89.827 50.479 89.843 50.398 89.843 50.311 C 89.843 50.228 89.827 50.148 89.797 50.073 C 89.767 49.998 89.718 49.932 89.651 49.875 C 89.584 49.819 89.494 49.775 89.382 49.743 C 89.268 49.711 89.132 49.695 88.97 49.695 L 88.325 49.695 L 88.325 50.932 Z M 88.325 52.91 L 87.962 52.91 L 87.962 49.365 L 89.061 49.365 C 89.424 49.365 89.711 49.443 89.921 49.6 C 90.131 49.757 90.236 49.994 90.236 50.311 C 90.236 50.558 90.158 50.766 90.002 50.934 C 89.845 51.103 89.619 51.2 89.324 51.227 L 90.352 52.91 L 89.908 52.91 L 88.93 51.262 L 88.325 51.262 L 88.325 52.91 Z" fill="#182020"></path>
      <path d="M 93.739 52.91 L 93.376 52.91 L 93.376 51.382 L 92.04 49.365 L 92.493 49.365 L 93.557 51.038 L 94.621 49.365 L 95.075 49.365 L 93.739 51.382 L 93.739 52.91 Z" fill="#182020"></path>
      <path d="M 99.032 52.399 L 99.042 52.399 L 99.939 49.365 L 100.373 49.365 L 101.27 52.399 L 101.28 52.399 L 102.128 49.365 L 102.531 49.365 L 101.477 52.91 L 101.054 52.91 L 100.156 49.876 L 100.146 49.876 L 99.249 52.91 L 98.825 52.91 L 97.771 49.365 L 98.175 49.365 L 99.032 52.399 Z" fill="#182020"></path>
      <path d="M 104.994 52.91 L 104.631 52.91 L 104.631 49.365 L 104.994 49.365 L 104.994 52.91 Z" fill="#182020"></path>
      <path d="M 108.682 52.91 L 108.319 52.91 L 108.319 49.696 L 107.123 49.696 L 107.123 49.365 L 109.876 49.365 L 109.876 49.696 L 108.682 49.696 L 108.682 52.91 Z" fill="#182020"></path>
      <path d="M 111.952 49.364 L 112.316 49.364 L 112.316 50.901 L 114.261 50.901 L 114.261 49.364 L 114.625 49.364 L 114.625 52.909 L 114.261 52.909 L 114.261 51.232 L 112.316 51.232 L 112.316 52.909 L 111.952 52.909 L 111.952 49.364 Z" fill="#182020"></path>
      <path d="M 118.754 50.932 L 119.339 50.932 C 119.5 50.932 119.637 50.915 119.75 50.882 C 119.863 50.848 119.953 50.804 120.02 50.749 C 120.087 50.694 120.136 50.629 120.166 50.554 C 120.196 50.479 120.211 50.398 120.211 50.311 C 120.211 50.228 120.196 50.148 120.166 50.073 C 120.136 49.998 120.087 49.932 120.02 49.875 C 119.953 49.819 119.863 49.775 119.75 49.743 C 119.637 49.711 119.5 49.695 119.339 49.695 L 118.754 49.695 L 118.754 50.932 Z M 118.391 49.365 L 119.43 49.365 C 119.793 49.365 120.08 49.443 120.289 49.6 C 120.499 49.757 120.604 49.994 120.604 50.311 C 120.604 50.628 120.499 50.866 120.289 51.025 C 120.08 51.183 119.793 51.262 119.43 51.262 L 118.754 51.262 L 118.754 52.91 L 118.391 52.91 L 118.391 49.365 Z" fill="#182020"></path>
      <path d="M 123.098 51.648 L 124.646 51.648 L 123.874 49.785 L 123.098 51.648 Z M 122.568 52.909 L 122.145 52.909 L 123.698 49.365 L 124.051 49.365 L 125.604 52.909 L 125.18 52.909 L 124.787 51.978 L 122.962 51.978 L 122.568 52.909 Z" fill="#182020"></path>
      <path d="M 129.38 49.951 C 129.222 49.721 128.991 49.606 128.689 49.606 C 128.595 49.606 128.503 49.618 128.412 49.643 C 128.321 49.669 128.24 49.707 128.167 49.759 C 128.095 49.811 128.037 49.877 127.993 49.959 C 127.95 50.041 127.928 50.137 127.928 50.247 C 127.928 50.407 127.973 50.532 128.064 50.62 C 128.155 50.708 128.268 50.781 128.402 50.838 C 128.536 50.895 128.683 50.945 128.843 50.991 C 129.003 51.036 129.15 51.096 129.284 51.171 C 129.419 51.246 129.532 51.345 129.622 51.469 C 129.713 51.592 129.758 51.76 129.758 51.975 C 129.758 52.134 129.724 52.279 129.655 52.408 C 129.586 52.536 129.495 52.643 129.383 52.73 C 129.27 52.817 129.144 52.884 129.004 52.931 C 128.865 52.978 128.725 53.001 128.583 53.001 C 128.365 53.001 128.157 52.96 127.961 52.878 C 127.764 52.796 127.597 52.662 127.459 52.475 L 127.791 52.24 C 127.869 52.37 127.976 52.474 128.113 52.552 C 128.251 52.631 128.413 52.67 128.601 52.67 C 128.691 52.67 128.782 52.656 128.872 52.628 C 128.963 52.6 129.044 52.558 129.116 52.502 C 129.189 52.447 129.248 52.38 129.295 52.3 C 129.342 52.22 129.365 52.128 129.365 52.024 C 129.365 51.9 129.339 51.798 129.287 51.717 C 129.235 51.635 129.166 51.567 129.08 51.511 C 128.994 51.456 128.897 51.41 128.788 51.374 C 128.678 51.337 128.566 51.3 128.45 51.263 C 128.333 51.226 128.221 51.185 128.112 51.138 C 128.003 51.092 127.906 51.032 127.819 50.96 C 127.734 50.889 127.665 50.799 127.613 50.69 C 127.561 50.582 127.535 50.446 127.535 50.282 C 127.535 50.112 127.567 49.963 127.633 49.836 C 127.698 49.709 127.786 49.604 127.895 49.521 C 128.004 49.437 128.128 49.376 128.266 49.336 C 128.403 49.296 128.545 49.276 128.689 49.276 C 128.891 49.276 129.074 49.307 129.239 49.371 C 129.403 49.434 129.556 49.546 129.698 49.706 L 129.38 49.951 Z" fill="#182020"></path>
      <path d="M 133.785 49.951 C 133.627 49.721 133.397 49.606 133.094 49.606 C 133 49.606 132.908 49.618 132.817 49.643 C 132.726 49.669 132.645 49.707 132.573 49.759 C 132.5 49.811 132.442 49.877 132.398 49.959 C 132.355 50.041 132.333 50.137 132.333 50.247 C 132.333 50.407 132.378 50.532 132.469 50.62 C 132.56 50.708 132.673 50.781 132.807 50.838 C 132.941 50.895 133.089 50.945 133.248 50.991 C 133.408 51.036 133.555 51.096 133.69 51.171 C 133.824 51.246 133.936 51.345 134.027 51.469 C 134.118 51.592 134.163 51.76 134.163 51.975 C 134.163 52.134 134.129 52.279 134.06 52.408 C 133.991 52.536 133.9 52.643 133.788 52.73 C 133.675 52.817 133.549 52.884 133.409 52.931 C 133.27 52.978 133.13 53.001 132.988 53.001 C 132.77 53.001 132.562 52.96 132.366 52.878 C 132.169 52.796 132.002 52.662 131.864 52.475 L 132.196 52.24 C 132.274 52.37 132.381 52.474 132.518 52.552 C 132.656 52.631 132.818 52.67 133.006 52.67 C 133.096 52.67 133.187 52.656 133.277 52.628 C 133.368 52.6 133.449 52.558 133.521 52.502 C 133.594 52.447 133.653 52.38 133.7 52.3 C 133.747 52.22 133.77 52.128 133.77 52.024 C 133.77 51.9 133.744 51.798 133.692 51.717 C 133.64 51.635 133.571 51.567 133.485 51.511 C 133.399 51.456 133.302 51.41 133.193 51.374 C 133.083 51.337 132.971 51.3 132.855 51.263 C 132.738 51.226 132.626 51.185 132.517 51.138 C 132.408 51.092 132.311 51.032 132.224 50.96 C 132.139 50.889 132.07 50.799 132.018 50.69 C 131.966 50.582 131.939 50.446 131.939 50.282 C 131.939 50.112 131.973 49.963 132.038 49.836 C 132.103 49.709 132.191 49.604 132.3 49.521 C 132.409 49.437 132.533 49.376 132.671 49.336 C 132.808 49.296 132.95 49.276 133.094 49.276 C 133.296 49.276 133.479 49.307 133.644 49.371 C 133.809 49.434 133.962 49.546 134.103 49.706 L 133.785 49.951 Z" fill="#182020"></path>
      <path d="M 136.865 52.91 L 136.502 52.91 L 136.502 49.365 L 136.865 49.365 L 136.865 52.91 Z" fill="#182020"></path>
      <path d="M 142.53 51.137 C 142.53 50.934 142.497 50.739 142.43 50.554 C 142.363 50.368 142.265 50.206 142.14 50.066 C 142.013 49.925 141.86 49.813 141.678 49.73 C 141.498 49.646 141.292 49.605 141.063 49.605 C 140.835 49.605 140.63 49.646 140.448 49.73 C 140.267 49.813 140.113 49.925 139.986 50.066 C 139.861 50.206 139.764 50.368 139.697 50.554 C 139.63 50.739 139.596 50.934 139.596 51.137 C 139.596 51.341 139.63 51.535 139.697 51.72 C 139.764 51.906 139.861 52.069 139.986 52.209 C 140.113 52.349 140.267 52.461 140.448 52.544 C 140.63 52.627 140.835 52.669 141.063 52.669 C 141.292 52.669 141.498 52.627 141.678 52.544 C 141.86 52.461 142.013 52.349 142.14 52.209 C 142.265 52.069 142.363 51.906 142.43 51.72 C 142.497 51.535 142.53 51.341 142.53 51.137 Z M 142.924 51.137 C 142.924 51.407 142.877 51.656 142.782 51.883 C 142.689 52.11 142.558 52.306 142.392 52.471 C 142.226 52.636 142.029 52.766 141.802 52.859 C 141.575 52.953 141.329 52.999 141.063 52.999 C 140.798 52.999 140.551 52.953 140.324 52.859 C 140.098 52.766 139.901 52.636 139.735 52.471 C 139.568 52.306 139.438 52.11 139.344 51.883 C 139.25 51.656 139.203 51.407 139.203 51.137 C 139.203 50.867 139.25 50.618 139.344 50.391 C 139.438 50.164 139.568 49.968 139.735 49.803 C 139.901 49.638 140.098 49.508 140.324 49.415 C 140.551 49.321 140.798 49.274 141.063 49.274 C 141.329 49.274 141.575 49.321 141.802 49.415 C 142.029 49.508 142.226 49.638 142.392 49.803 C 142.558 49.968 142.689 50.164 142.782 50.391 C 142.877 50.618 142.924 50.867 142.924 51.137 Z" fill="#182020"></path>
      <path d="M 147.748 52.369 L 147.758 52.369 L 147.758 49.365 L 148.114 49.365 L 148.114 52.909 L 147.669 52.909 L 145.586 49.875 L 145.576 49.875 L 145.576 52.909 L 145.22 52.909 L 145.22 49.365 L 145.664 49.365 L 147.748 52.369 Z" fill="#182020"></path>
    </g>
  </g>
</svg>