<?xml version="1.0" standalone="no"?>
<!DOCTYPE svg PUBLIC "-//W3C//DTD SVG 20010904//EN"
 "http://www.w3.org/TR/2001/REC-SVG-20010904/DTD/svg10.dtd">
<svg version="1.0" xmlns="http://www.w3.org/2000/svg"
 width="700.000000pt" height="700.000000pt" viewBox="0 0 700.000000 700.000000"
 preserveAspectRatio="xMidYMid meet">
<metadata>
Created by potrace 1.14, written by Peter Selinger 2001-2017
</metadata>
<g transform="translate(0.000000,700.000000) scale(0.100000,-0.100000)"
fill="#000000" stroke="none">
<path d="M3299 6996 c-2 -2 -40 -6 -84 -9 -80 -6 -200 -21 -265 -32 -109 -19
-283 -57 -319 -70 -22 -8 -41 -12 -41 -10 0 8 -328 -108 -428 -151 -409 -178
-758 -418 -1080 -744 -348 -351 -632 -815 -792 -1290 -36 -108 -115 -409 -124
-475 -2 -16 -10 -66 -16 -110 -34 -222 -45 -554 -27 -775 10 -120 39 -334 52
-380 2 -8 7 -31 10 -50 11 -67 74 -295 110 -400 152 -437 366 -805 670 -1149
132 -149 331 -340 418 -400 12 -8 31 -23 41 -33 11 -10 69 -53 130 -95 572
-402 1242 -616 1936 -617 103 0 330 11 370 18 14 3 50 7 80 10 65 8 90 12 193
32 42 8 90 18 105 20 117 21 438 122 539 169 17 8 34 15 37 15 14 0 281 133
371 185 350 202 701 503 951 815 340 424 571 913 678 1435 29 137 32 158 42
240 3 33 8 68 10 79 18 97 24 480 11 641 -17 201 -50 402 -98 585 -17 63 -32
122 -34 130 -10 41 -91 266 -127 350 -112 264 -272 536 -444 756 -142 182
-311 360 -469 494 -27 23 -61 52 -75 64 -158 135 -442 315 -675 426 -214 102
-525 211 -695 244 -14 2 -56 11 -95 19 -38 9 -88 18 -110 21 -23 4 -50 8 -60
10 -11 2 -47 7 -80 10 -33 4 -73 9 -90 12 -35 5 -521 14 -526 10z m451 -240
c177 -15 340 -41 505 -82 283 -70 615 -205 844 -345 40 -24 80 -49 89 -54 29
-17 145 -97 192 -132 160 -120 328 -276 490 -453 56 -62 207 -261 262 -345
175 -270 305 -551 393 -849 38 -128 90 -375 100 -471 9 -87 16 -146 21 -175 2
-14 4 -115 4 -225 -1 -172 -2 -217 -9 -280 -1 -5 -16 24 -33 65 -177 419 -518
883 -876 1193 -288 248 -640 468 -938 583 -38 14 -82 32 -99 39 -117 51 -438
138 -605 165 -36 5 -75 12 -88 15 -13 2 -50 7 -83 10 -33 4 -70 9 -82 12 -38
9 -538 11 -612 3 -244 -29 -260 -31 -424 -65 -63 -14 -117 -22 -121 -20 -6 4
-29 97 -35 140 0 6 -4 26 -8 45 -14 71 -30 186 -42 315 -6 64 -7 427 -1 485
13 127 19 173 29 240 l12 74 45 13 c25 8 110 27 190 43 129 26 173 33 270 45
14 2 72 7 130 10 58 4 106 8 107 9 5 4 309 -2 373 -8z m-1371 -257 c-31 -197
-31 -602 1 -834 18 -129 23 -160 50 -288 11 -55 17 -103 14 -108 -3 -5 -13 -9
-23 -9 -10 0 -21 -3 -25 -7 -3 -4 -12 -8 -19 -9 -24 -4 -224 -87 -317 -131
-734 -354 -1325 -963 -1646 -1695 -29 -67 -54 -114 -54 -103 -1 11 -3 34 -6
50 -13 82 -5 515 11 590 2 11 7 43 10 70 59 516 293 1077 629 1510 118 152
209 249 417 447 90 85 324 254 481 347 153 90 462 236 478 226 4 -3 3 -28 -1
-56z m1406 -1304 c50 -4 99 -9 110 -11 11 -2 43 -7 70 -10 28 -3 56 -7 64 -10
8 -3 30 -7 50 -10 56 -8 207 -44 296 -69 292 -84 591 -221 850 -389 93 -61
280 -201 345 -260 83 -74 295 -290 340 -346 25 -30 48 -57 51 -60 4 -3 45 -58
92 -122 170 -233 304 -483 408 -757 39 -104 45 -130 32 -132 -5 0 -15 -2 -23
-4 -66 -14 -222 -45 -252 -49 -40 -6 -88 -12 -208 -25 -78 -9 -526 -7 -570 2
-14 3 -53 8 -87 11 -164 16 -421 75 -618 142 -706 238 -1320 735 -1702 1378
-112 189 -283 566 -283 626 0 12 31 22 138 43 75 15 157 30 182 33 25 3 56 7
70 9 14 2 56 7 95 10 38 3 70 7 71 8 6 6 398 -1 479 -8z m-1260 -167 c67 -201
210 -517 289 -641 20 -31 36 -58 36 -61 0 -3 32 -54 72 -113 168 -251 358
-469 578 -663 47 -41 87 -78 90 -81 12 -14 213 -161 295 -215 235 -156 511
-291 785 -384 101 -34 368 -104 435 -114 22 -4 65 -11 95 -16 30 -5 78 -12
105 -15 28 -4 61 -8 73 -10 133 -22 591 -22 722 -1 14 3 77 12 140 21 63 9
158 26 211 39 l96 22 -9 -35 c-5 -20 -10 -43 -12 -51 -2 -8 -13 -42 -24 -75
-272 -824 -838 -1483 -1600 -1864 -353 -177 -722 -282 -1117 -319 -158 -14
-563 -7 -685 12 -14 2 -45 7 -70 11 -25 4 -58 9 -75 12 -82 12 -273 59 -385
93 -480 148 -922 414 -1280 770 -140 140 -169 171 -258 283 -238 300 -420 643
-537 1011 -46 145 -47 150 -35 205 17 80 95 308 147 430 336 790 991 1421
1788 1722 110 42 124 45 130 27z"/>
</g>
</svg>
